<?xml version="1.0" encoding="UTF-8" standalone="no"?>
<!-- Created with Inkscape (http://www.inkscape.org/) -->

<svg
   width="218.72421"
   height="300.80966"
   viewBox="0 0 57.870781 79.589223"
   version="1.1"
   id="svg7417"
   inkscape:version="1.2.2 (732a01da63, 2022-12-09)"
   sodipodi:docname="interruptor_on.svg"
   xmlns:inkscape="http://www.inkscape.org/namespaces/inkscape"
   xmlns:sodipodi="http://sodipodi.sourceforge.net/DTD/sodipodi-0.dtd"
   xmlns="http://www.w3.org/2000/svg"
   xmlns:svg="http://www.w3.org/2000/svg">
  <sodipodi:namedview
     id="namedview7419"
     pagecolor="#ffffff"
     bordercolor="#000000"
     borderopacity="0.25"
     inkscape:showpageshadow="2"
     inkscape:pageopacity="0.0"
     inkscape:pagecheckerboard="0"
     inkscape:deskcolor="#d1d1d1"
     inkscape:document-units="mm"
     showgrid="false"
     inkscape:lockguides="false"
     inkscape:zoom="3.7522727"
     inkscape:cx="255.31193"
     inkscape:cy="188.41914"
     inkscape:window-width="3840"
     inkscape:window-height="2054"
     inkscape:window-x="-11"
     inkscape:window-y="-11"
     inkscape:window-maximized="1"
     inkscape:current-layer="layer1" />
  <defs
     id="defs7414">
    <rect
       x="280.36343"
       y="1034.04"
       width="133.78558"
       height="76.220474"
       id="rect5922" />
  </defs>
  <g
     inkscape:label="Capa 1"
     inkscape:groupmode="layer"
     id="layer1"
     transform="translate(-2.5761839,-2.0878668)">
    <path
       style="fill:#bcb6b6;fill-opacity:1;stroke:#000000;stroke-width:0.403842;stroke-dasharray:none;stroke-dashoffset:0;stroke-opacity:1"
       d="M 26.645981,27.590355 V 51.235076 H 37.17252 V 27.39838 Z"
       id="path1565" />
    <path
       style="fill:none;fill-opacity:1;stroke:#000000;stroke-width:0.403842;stroke-dasharray:none;stroke-dashoffset:0;stroke-opacity:1"
       d="M 2.7793781,2.2901971 H 60.245042 V 81.475169 H 3.2771122 Z"
       id="path1362" />
    <path
       style="fill:none;fill-opacity:1;stroke:#000000;stroke-width:0.403842;stroke-dasharray:none;stroke-dashoffset:0;stroke-opacity:1"
       d="M 8.4354471,7.0412977 H 55.358198 V 75.095121 H 8.2544528 Z"
       id="path1364" />
    <path
       style="fill:none;fill-opacity:1;stroke:#000000;stroke-width:0.403842;stroke-dasharray:none;stroke-dashoffset:0;stroke-opacity:1"
       d="M 2.7793781,2.2449496 8.6616904,6.9960447"
       id="path1366" />
    <path
       style="fill:none;fill-opacity:1;stroke:#000000;stroke-width:0.403842;stroke-dasharray:none;stroke-dashoffset:0;stroke-opacity:1"
       d="M 60.245042,2.2449496 55.222453,7.0412977"
       id="path1368" />
    <path
       style="fill:none;fill-opacity:1;stroke:#000000;stroke-width:0.403842;stroke-dasharray:none;stroke-dashoffset:0;stroke-opacity:1"
       d="M 3.1866153,81.384672 8.2544528,75.095121"
       id="path1370" />
    <path
       style="fill:none;fill-opacity:1;stroke:#000000;stroke-width:0.403842;stroke-dasharray:none;stroke-dashoffset:0;stroke-opacity:1"
       d="M 60.047577,81.482933 55.296479,75.012388"
       id="path1372" />
    <ellipse
       style="fill:#ffffff;fill-opacity:0;stroke:#000000;stroke-width:0.403842;stroke-dasharray:none;stroke-dashoffset:0;stroke-opacity:1"
       id="path1434"
       cx="32.357189"
       cy="13.144362"
       rx="2.7356203"
       ry="3.0235801" />
    <path
       style="fill:none;fill-opacity:1;stroke:#000000;stroke-width:0.424389;stroke-dasharray:none;stroke-dashoffset:0;stroke-opacity:1"
       d="m 30.508989,10.952069 c 0.162258,0.0319 0.143709,0.113466 0.232291,0.204403 0.04043,0.04152 0.07414,0.01593 0.09955,0.06814 0.0049,0.01016 -0.0099,0.029 0,0.03408 0.164033,0.0842 -0.0073,-0.07559 0.09956,0.03408 0.01752,0.01797 0.01107,0.05678 0.03317,0.06814 0.01978,0.01017 0.04796,-0.01261 0.06637,0 0.04602,0.03149 0.05531,0.102204 0.09955,0.136268 0.05008,0.03857 0.268823,0.15846 0.298667,0.204412 0.0123,0.01888 -0.01838,0.05553 0,0.06813 0.02763,0.01888 0.06874,-0.01266 0.09955,0 0.108193,0.04447 0.0339,0.102939 0.09955,0.170344 0.02518,0.02586 0.131162,0.0324 0.165929,0.06813 0.08849,0.181697 -0.03317,-0.03408 0.09955,0.102204 0.0078,0.008 -0.0078,0.02604 0,0.03408 0.01107,0.01134 0.08849,0.02269 0.09955,0.03408 0.0078,0.008 -0.0078,0.02604 0,0.03408 0.01992,0.02042 0.07341,0.02786 0.09956,0.06814 0.01375,0.0211 0.01261,0.05405 0.03317,0.06813 0.01838,0.01262 0.04796,-0.01261 0.06637,0 0.121253,0.08299 -0.03557,0.04988 0.06637,0.102204 0.100724,0.05171 0.131149,0.152494 0.16592,0.17034 0.05431,0.02786 0.08736,0.03231 0.132742,0.102204 0.0061,0.0095 -0.0078,0.02604 0,0.03408 0.01751,0.01797 0.04888,0.01606 0.06637,0.03408 0.08838,0.09073 0.107091,0.178081 0.16592,0.238475 0.03748,0.03848 0.144658,0.104831 0.16593,0.17034 0.01702,0.05244 -0.02895,0.09376 0.03317,0.136272 0.01842,0.01261 0.05072,-0.01602 0.06637,0 0.01561,0.01602 -0.0123,0.04924 0,0.06814 0.01375,0.0211 0.04888,0.01611 0.06637,0.03408 0.05672,0.05823 0.08134,0.236252 0.132737,0.306611 0.01534,0.02096 0.09001,0.02895 0.09956,0.06814 0.01071,0.04406 -0.03131,0.104151 0,0.136272 0.06866,0.07049 -0.0027,-0.107713 0.06637,0.03408 0.0099,0.02028 -0.0099,0.04783 0,0.06814 0.01398,0.02872 0.05238,0.03943 0.06637,0.06814 0.05444,0.111773 0.06437,0.235394 0.132737,0.340684 0.01738,0.02673 0.05238,0.03943 0.06637,0.06813 0.160249,0.329027 -0.04274,-0.06353 0.03317,0.170344 0.0049,0.0152 0.02618,0.01969 0.03317,0.03408 0.024,0.0493 0.02033,0.117541 0.03317,0.17034 -0.02001,0.06166 0.05375,0.06336 0.06637,0.102204 0.0023,0.0069 -0.01107,0.124937 0,0.136271 0.0078,0.008 0.02537,-0.008 0.03317,0 0.01969,0.02019 0.02505,0.264172 0.09955,0.34068"
       id="path1505" />
    <rect
       style="fill:#f9f4f4;fill-opacity:1;stroke:#000000;stroke-width:0.407297;stroke-dasharray:none;stroke-dashoffset:0;stroke-opacity:1"
       id="rect1559"
       width="8.3024712"
       height="8.411376"
       x="32.316746"
       y="25.351397" />
    <rect
       style="fill:#d5cbcb;fill-opacity:1;stroke:#000000;stroke-width:0.436625;stroke-dasharray:none;stroke-dashoffset:0;stroke-opacity:1"
       id="rect1749"
       width="8.1268711"
       height="9.5372477"
       x="52.89608"
       y="39.580257"
       transform="matrix(1,0,-0.51784565,0.85547407,0,0)" />
    <rect
       style="fill:#f0f0f0;fill-opacity:1;stroke:#000000;stroke-width:0.530354;stroke-dasharray:none;stroke-dashoffset:0;stroke-opacity:1"
       id="rect1842"
       width="9.2129478"
       height="8.5883026"
       x="50.193489"
       y="75.719124"
       transform="matrix(0.530953,-0.84740127,0.00736567,0.99997287,0,0)" />
    <ellipse
       style="fill:#ffffff;fill-opacity:0;stroke:#000000;stroke-width:0.403842;stroke-dasharray:none;stroke-dashoffset:0;stroke-opacity:1"
       id="ellipse1844"
       cx="32.357189"
       cy="66.689445"
       rx="2.7356203"
       ry="3.0235801" />
    <path
       style="fill:none;fill-opacity:1;stroke:#000000;stroke-width:0.424389;stroke-dasharray:none;stroke-dashoffset:0;stroke-opacity:1"
       d="m 30.508989,64.497151 c 0.162258,0.0319 0.143709,0.113466 0.232291,0.204404 0.04043,0.04152 0.07414,0.01593 0.09955,0.06814 0.0049,0.01016 -0.0099,0.02899 0,0.03408 0.164033,0.0842 -0.0073,-0.07559 0.09956,0.03408 0.01752,0.01797 0.01107,0.05678 0.03317,0.06814 0.01978,0.01017 0.04796,-0.01261 0.06637,0 0.04602,0.03149 0.05531,0.102204 0.09955,0.136268 0.05008,0.03857 0.268823,0.15846 0.298667,0.204412 0.0123,0.01888 -0.01838,0.05554 0,0.06813 0.02763,0.01888 0.06874,-0.01266 0.09955,0 0.108193,0.04447 0.0339,0.102939 0.09955,0.170344 0.02518,0.02586 0.131162,0.0324 0.165929,0.06813 0.08849,0.181697 -0.03317,-0.03408 0.09955,0.102204 0.0078,0.008 -0.0078,0.02604 0,0.03408 0.01107,0.01134 0.08849,0.02269 0.09955,0.03408 0.0078,0.008 -0.0078,0.02604 0,0.03408 0.01992,0.02042 0.07341,0.02786 0.09956,0.06814 0.01375,0.0211 0.01261,0.05405 0.03317,0.06813 0.01838,0.01262 0.04796,-0.01261 0.06637,0 0.121253,0.08299 -0.03557,0.04988 0.06637,0.102204 0.100724,0.05171 0.131149,0.152494 0.16592,0.17034 0.05431,0.02786 0.08736,0.03231 0.132742,0.102204 0.0061,0.0095 -0.0078,0.02604 0,0.03408 0.01751,0.01797 0.04888,0.01606 0.06637,0.03408 0.08838,0.09073 0.107091,0.17808 0.16592,0.238475 0.03748,0.03848 0.144658,0.104831 0.16593,0.17034 0.01702,0.05244 -0.02895,0.09376 0.03317,0.136272 0.01842,0.01261 0.05072,-0.01602 0.06637,0 0.01561,0.01602 -0.0123,0.04924 0,0.06814 0.01375,0.0211 0.04888,0.01611 0.06637,0.03408 0.05672,0.05823 0.08134,0.236252 0.132737,0.306611 0.01534,0.02096 0.09001,0.02895 0.09956,0.06814 0.01071,0.04406 -0.03131,0.10415 0,0.136272 0.06866,0.07049 -0.0027,-0.107713 0.06637,0.03408 0.0099,0.02028 -0.0099,0.04784 0,0.06814 0.01398,0.02872 0.05238,0.03943 0.06637,0.06814 0.05444,0.111773 0.06437,0.235394 0.132737,0.340684 0.01738,0.02673 0.05238,0.03943 0.06637,0.06813 0.160249,0.329027 -0.04274,-0.06354 0.03317,0.170344 0.0049,0.0152 0.02618,0.01969 0.03317,0.03408 0.024,0.0493 0.02033,0.117541 0.03317,0.17034 -0.02001,0.06166 0.05375,0.06336 0.06637,0.102204 0.0023,0.0069 -0.01107,0.124937 0,0.136271 0.0078,0.008 0.02537,-0.008 0.03317,0 0.01969,0.02019 0.02505,0.264172 0.09955,0.34068"
       id="path1846" />
    <path
       style="fill:#b3aaaa;fill-opacity:1;stroke:#000000;stroke-width:0.215252;stroke-dasharray:none;stroke-dashoffset:0;stroke-opacity:1"
       d="M 6.2021556,4.6975346 3.5677619,2.5698303 17.591752,2.5536888 c 7.713192,-0.00887 20.311152,-0.00887 27.995464,0 l 13.971476,0.016141 -2.218333,2.1240918 -2.218333,2.1240907 -23.142738,0.00361 -23.1427386,0.00361 z"
       id="path2400" />
    <path
       style="fill:#928c8c;fill-opacity:1;stroke:#000000;stroke-width:0.215252;stroke-dasharray:none;stroke-dashoffset:0;stroke-opacity:1"
       d="M 3.5112251,80.476724 C 3.5007802,79.978948 3.0161956,2.760256 3.0234878,2.7557035 c 0.00538,-0.00335 1.1688093,0.9318907 2.585412,2.0783229 l 2.5756431,2.0844229 -0.00561,6.9764207 c -0.00309,3.83703 -0.039324,19.157129 -0.080531,34.044662 l -0.074922,27.068242 -2.1668138,2.687627 c -2.4504498,3.039432 -2.3427055,2.911668 -2.345441,2.781323 z"
       id="path2816" />
    <path
       style="fill:#767070;fill-opacity:1;stroke:#000000;stroke-width:0.215252;stroke-dasharray:none;stroke-dashoffset:0;stroke-opacity:1"
       d="m 3.7175331,81.12804 c 0.04599,-0.06538 1.1189176,-1.404404 2.3842845,-2.975592 L 8.4024831,75.295734 H 31.804809 55.207135 l 2.101148,2.860448 c 1.155631,1.573241 2.138776,2.912262 2.184765,2.975592 0.08047,0.1108 -0.968094,0.115134 -27.887756,0.115134 -27.2441996,0 -27.9692026,-0.0031 -27.8877589,-0.118868 z"
       id="path4060" />
    <path
       style="fill:#f1e9e9;fill-opacity:1;stroke:#000000;stroke-width:0.215252;stroke-dasharray:none;stroke-dashoffset:0;stroke-opacity:1"
       d="m 57.793655,78.004491 -2.191695,-2.986619 0.0061,-34.016327 0.0061,-34.0163277 2.185571,-2.0797108 2.18557,-2.0797119 0.0161,19.5705384 c 0.0089,10.763797 0.0089,28.350993 0,39.082659 l -0.0161,19.512112 z"
       id="path4890" />
    <path
       style="fill:#f9f6f6;fill-opacity:1;stroke:#000000;stroke-width:0.215252;stroke-dasharray:none;stroke-dashoffset:0;stroke-opacity:1"
       d="m 8.5259751,60.497788 c 0.023331,-7.892505 0.057564,-22.456083 0.076075,-32.363507 0.018511,-9.907425 0.050534,-18.65421 0.071162,-19.4373008 L 8.7107186,7.2731777 H 31.93237 55.154021 V 41.060486 74.847796 H 31.818788 8.4835557 Z m 24.7323969,9.288248 c 0.950616,-0.321028 1.713707,-1.195161 1.961744,-2.247211 0.408541,-1.732828 -0.493613,-3.495735 -2.027308,-3.96158 -0.353058,-0.107239 -0.561366,-0.129513 -1.010406,-0.108044 -0.493152,0.02358 -0.627047,0.05738 -1.044577,0.263739 -1.087148,0.537298 -1.729157,1.63481 -1.729157,2.955989 0,1.473376 0.805516,2.668893 2.099801,3.116445 0.460864,0.159364 1.246446,0.150683 1.749903,-0.01934 z m 4.17011,-24.332057 v -6.03706 l 1.601044,-2.649735 c 0.880574,-1.457353 1.658067,-2.689241 1.72776,-2.737528 0.124219,-0.08606 0.126717,-0.174688 0.126717,-4.495375 v -4.407582 h -4.31495 -4.31495 l -0.02045,-0.143054 c -0.01514,-0.105911 -0.219681,0.17653 -0.787809,1.087849 l -0.76736,1.230903 -0.928404,2.4e-4 c -0.510622,1.2e-4 -1.46833,0.01905 -2.128238,0.04211 l -1.199834,0.04192 v 12.052208 12.052207 h 5.503237 5.503235 z m -4.12069,-29.231752 c 1.284809,-0.474062 2.074476,-1.778181 1.989633,-3.285836 -0.0705,-1.252791 -0.695019,-2.239342 -1.747757,-2.760928 -1.309256,-0.6486782 -2.922672,-0.123757 -3.69195,1.20117 -0.305168,0.525589 -0.443852,1.059096 -0.447043,1.719735 -0.0049,1.004588 0.275768,1.729164 0.935949,2.416674 0.788868,0.821524 1.92152,1.092788 2.961168,0.709185 z"
       id="path5866" />
    <text
       xml:space="preserve"
       transform="matrix(0.11792214,0,0,0.19090685,-4.4059135,-153.87552)"
       id="text5920"
       style="font-style:normal;font-variant:normal;font-weight:normal;font-stretch:normal;font-size:32px;font-family:'MV Boli';-inkscape-font-specification:'MV Boli';white-space:pre;shape-inside:url(#rect5922);display:inline;fill:#f9f6f6;fill-opacity:1;stroke:#000000;stroke-width:3.36378;stroke-dasharray:none;stroke-dashoffset:0;stroke-opacity:1"><tspan
         x="280.36328"
         y="1062.3504"
         id="tspan1009">ON</tspan></text>
  </g>
</svg>
