<?xml version="1.0" encoding="UTF-8" standalone="no"?>
<!-- Created with Inkscape (http://www.inkscape.org/) -->

<svg
   width="57.870773mm"
   height="79.589226mm"
   viewBox="0 0 57.870773 79.589226"
   version="1.1"
   id="svg7417"
   inkscape:version="1.2.2 (732a01da63, 2022-12-09)"
   sodipodi:docname="interruptor_on.svg"
   inkscape:export-filename="interruptor_off.png"
   inkscape:export-xdpi="96"
   inkscape:export-ydpi="96"
   xmlns:inkscape="http://www.inkscape.org/namespaces/inkscape"
   xmlns:sodipodi="http://sodipodi.sourceforge.net/DTD/sodipodi-0.dtd"
   xmlns="http://www.w3.org/2000/svg"
   xmlns:svg="http://www.w3.org/2000/svg">
  <sodipodi:namedview
     id="namedview7419"
     pagecolor="#ffffff"
     bordercolor="#000000"
     borderopacity="0.25"
     inkscape:showpageshadow="2"
     inkscape:pageopacity="0.0"
     inkscape:pagecheckerboard="0"
     inkscape:deskcolor="#d1d1d1"
     inkscape:document-units="mm"
     showgrid="false"
     inkscape:lockguides="false"
     inkscape:zoom="7.5045455"
     inkscape:cx="207.40763"
     inkscape:cy="105.13628"
     inkscape:window-width="3818"
     inkscape:window-height="2032"
     inkscape:window-x="0"
     inkscape:window-y="0"
     inkscape:window-maximized="0"
     inkscape:current-layer="layer1" />
  <defs
     id="defs7414">
    <rect
       x="280.36343"
       y="1034.04"
       width="133.78558"
       height="76.220474"
       id="rect5922" />
    <rect
       x="498.89764"
       y="1059.6245"
       width="170.03027"
       height="57.032101"
       id="rect5978" />
  </defs>
  <g
     inkscape:label="Capa 1"
     inkscape:groupmode="layer"
     id="layer1"
     transform="translate(-2.4599302,-2.2810527)">
    <path
       style="fill:#bcb6b6;fill-opacity:1;stroke:#000000;stroke-width:0.403842;stroke-dasharray:none;stroke-dashoffset:0;stroke-opacity:1"
       d="m 26.529724,27.783545 v 23.64472 h 10.52654 v -23.8367 z"
       id="path6107" />
    <path
       style="fill:none;fill-opacity:1;stroke:#000000;stroke-width:0.403842;stroke-dasharray:none;stroke-dashoffset:0;stroke-opacity:1"
       d="M 2.6631244,2.4833853 H 60.128784 V 81.668355 H 3.1608544 Z"
       id="path6109" />
    <path
       style="fill:none;fill-opacity:1;stroke:#000000;stroke-width:0.403842;stroke-dasharray:none;stroke-dashoffset:0;stroke-opacity:1"
       d="M 8.3191944,7.2344853 H 55.241944 V 75.288305 H 8.1381944 Z"
       id="path6111" />
    <path
       style="fill:none;fill-opacity:1;stroke:#000000;stroke-width:0.403842;stroke-dasharray:none;stroke-dashoffset:0;stroke-opacity:1"
       d="m 2.6631244,2.4381353 5.88231,4.7511"
       id="path6113" />
    <path
       style="fill:none;fill-opacity:1;stroke:#000000;stroke-width:0.403842;stroke-dasharray:none;stroke-dashoffset:0;stroke-opacity:1"
       d="m 60.128784,2.4381353 -5.02258,4.79635"
       id="path6115" />
    <path
       style="fill:none;fill-opacity:1;stroke:#000000;stroke-width:0.403842;stroke-dasharray:none;stroke-dashoffset:0;stroke-opacity:1"
       d="m 3.0703644,81.577855 5.06783,-6.28955"
       id="path6117" />
    <path
       style="fill:none;fill-opacity:1;stroke:#000000;stroke-width:0.403842;stroke-dasharray:none;stroke-dashoffset:0;stroke-opacity:1"
       d="m 59.931324,81.676115 -4.7511,-6.47054"
       id="path6119" />
    <ellipse
       style="fill:#ffffff;fill-opacity:1;stroke:#000000;stroke-width:0.403842;stroke-dasharray:none;stroke-dashoffset:0;stroke-opacity:1"
       id="ellipse6121"
       cx="32.24094"
       cy="13.337543"
       rx="2.7356203"
       ry="3.0235801" />
    <rect
       style="fill:#f9f4f4;fill-opacity:1;stroke:#000000;stroke-width:0.407297;stroke-dasharray:none;stroke-dashoffset:0;stroke-opacity:1"
       id="rect6125"
       width="8.3024712"
       height="8.411376"
       x="31.706898"
       y="-53.72958"
       transform="scale(1,-1)" />
    <rect
       style="fill:#d5cbcb;fill-opacity:1;stroke:#000000;stroke-width:0.436625;stroke-dasharray:none;stroke-dashoffset:0;stroke-opacity:1"
       id="rect6127"
       width="8.1268711"
       height="9.5372477"
       x="4.4160094"
       y="-52.860859"
       transform="matrix(1,0,-0.51784565,-0.85547407,0,0)" />
    <rect
       style="fill:#f0f0f0;fill-opacity:1;stroke:#000000;stroke-width:0.530354;stroke-dasharray:none;stroke-dashoffset:0;stroke-opacity:1"
       id="rect6129"
       width="9.2129478"
       height="8.5883026"
       x="50.142597"
       y="-3.4071357"
       transform="matrix(0.530953,0.84740127,0.00736567,-0.99997287,0,0)" />
    <path
       style="fill:#b3aaaa;fill-opacity:1;stroke:#000000;stroke-width:0.215252;stroke-dasharray:none;stroke-dashoffset:0;stroke-opacity:1"
       d="m 6.0859044,4.8907253 -2.6344,-2.12771 14.0239896,-0.0161 c 7.7132,-0.009 20.31115,-0.009 27.99547,0 l 13.97147,0.0161 -2.21833,2.12409 -2.21833,2.1241 -23.14274,0.004 -23.1427396,0.004 z"
       id="path6135" />
    <path
       style="fill:#928c8c;fill-opacity:1;stroke:#000000;stroke-width:0.215252;stroke-dasharray:none;stroke-dashoffset:0;stroke-opacity:1"
       d="m 3.3949744,80.669915 c -0.0105,-0.49778 -0.49503,-77.7164697 -0.48774,-77.7210197 0.005,-0.003 1.16881,0.93189 2.58541,2.07832 l 2.57565,2.08442 -0.006,6.9764197 c -0.003,3.83703 -0.0393,19.15713 -0.0805,34.04467 l -0.0749,27.06824 -2.16681,2.68762 c -2.45045,3.03944 -2.34271,2.91167 -2.34544,2.78133 z"
       id="path6137" />
    <path
       style="fill:#767070;fill-opacity:1;stroke:#000000;stroke-width:0.215252;stroke-dasharray:none;stroke-dashoffset:0;stroke-opacity:1"
       d="m 3.6012844,81.321225 c 0.046,-0.0654 1.11891,-1.4044 2.38428,-2.97559 l 2.30067,-2.85671 h 23.4023196 23.40233 l 2.10115,2.86045 c 1.15563,1.57324 2.13877,2.91226 2.18476,2.97559 0.0805,0.1108 -0.96809,0.11513 -27.88775,0.11513 -27.2442096,0 -27.9692096,-0.003 -27.8877596,-0.11887 z"
       id="path6139" />
    <path
       style="fill:#f1e9e9;fill-opacity:1;stroke:#000000;stroke-width:0.215252;stroke-dasharray:none;stroke-dashoffset:0;stroke-opacity:1"
       d="m 57.677404,78.197675 -2.1917,-2.98661 0.006,-34.01633 0.006,-34.0163297 2.18557,-2.07971 2.18558,-2.07971 0.0161,19.5705297 c 0.009,10.7638 0.009,28.351 0,39.08267 l -0.0161,19.51211 z"
       id="path6141" />
    <text
       xml:space="preserve"
       transform="matrix(0.11010863,0,0,0.25305752,-26.707887,-240.23496)"
       id="text5976"
       style="font-style:normal;font-variant:normal;font-weight:normal;font-stretch:normal;font-size:32px;font-family:'MV Boli';-inkscape-font-specification:'MV Boli';white-space:pre;shape-inside:url(#rect5978);display:inline;fill:#f9f6f6;fill-opacity:1;stroke:#000000;stroke-width:3.36378;stroke-dasharray:none;stroke-dashoffset:0;stroke-opacity:1"><tspan
         x="498.89844"
         y="1087.9364"
         id="tspan1892">OFF</tspan></text>
    <path
       style="fill:#ffffff;fill-opacity:1;stroke:#000000;stroke-width:0.335436"
       d="M 8.4083778,69.966128 C 8.4216969,67.18269 8.4609804,51.992813 8.4956768,36.210846 L 8.5587609,7.5163625 H 31.781207 55.003655 V 41.271645 75.026927 H 31.693908 8.3841629 Z m 24.7831192,0.01744 c 1.716429,-0.584846 2.534489,-2.934391 1.634342,-4.693976 -0.540745,-1.057031 -1.452176,-1.624959 -2.613599,-1.628576 -1.633543,-0.0051 -2.809197,1.206516 -2.915711,3.004862 -0.03251,0.548865 0.0028,0.915993 0.125664,1.306603 0.519814,1.652629 2.196251,2.54708 3.769304,2.011087 z M 31.66913,54.085683 c 0,-0.06493 1.495803,-0.09972 4.28797,-0.09972 h 4.287967 v -4.404767 c 0,-3.57794 -0.02553,-4.434319 -0.136094,-4.562197 -0.07485,-0.08659 -0.747961,-1.171869 -1.495801,-2.411736 L 37.25346,40.352959 v -6.509041 -6.509044 l -3.864157,0.06374 c -2.125285,0.03505 -4.59336,0.09118 -5.48461,0.124723 L 26.28424,27.58432 V 39.63616 51.688 l 1.866256,0.02713 1.866256,0.02713 0.751398,1.21769 c 0.694549,1.125561 0.90098,1.383487 0.90098,1.125733 z m 1.522367,-37.651858 c 1.716429,-0.584846 2.534489,-2.93439 1.634342,-4.693975 -0.540745,-1.057034 -1.452176,-1.624962 -2.613599,-1.628578 -1.636035,-0.0051 -2.80919,1.206209 -2.916057,3.010879 -0.09166,1.54793 0.713549,2.879272 2.023927,3.346361 0.447471,0.159503 1.3506,0.142763 1.871387,-0.03469 z"
       id="path1794" />
    <ellipse
       style="fill:#ffffff;fill-opacity:1;stroke:#000000;stroke-width:0.403842;stroke-dasharray:none;stroke-dashoffset:0;stroke-opacity:1"
       id="ellipse6131"
       cx="32.249756"
       cy="66.873817"
       rx="2.7356203"
       ry="3.0235801" />
    <path
       style="fill:none;fill-opacity:1;stroke:#000000;stroke-width:0.424389;stroke-dasharray:none;stroke-dashoffset:0;stroke-opacity:1"
       d="m 30.392734,64.690335 c 0.16226,0.0319 0.14371,0.11347 0.23229,0.20441 0.0404,0.0415 0.0742,0.0159 0.0995,0.0681 0.005,0.0102 -0.01,0.029 0,0.0341 0.16403,0.0842 -0.007,-0.0756 0.0996,0.0341 0.0175,0.018 0.0111,0.0568 0.0332,0.0681 0.0198,0.0102 0.048,-0.0126 0.0664,0 0.046,0.0315 0.0553,0.10221 0.0996,0.13627 0.0501,0.0386 0.26882,0.15846 0.29867,0.20441 0.0123,0.0189 -0.0184,0.0555 0,0.0681 0.0276,0.0189 0.0687,-0.0127 0.0995,0 0.10819,0.0445 0.0339,0.10294 0.0996,0.17035 0.0252,0.0259 0.13116,0.0324 0.16593,0.0681 0.0885,0.18169 -0.0332,-0.0341 0.0996,0.1022 0.008,0.008 -0.008,0.026 0,0.0341 0.0111,0.0113 0.0885,0.0227 0.0995,0.0341 0.008,0.008 -0.008,0.026 0,0.0341 0.0199,0.0204 0.0734,0.0279 0.0996,0.0681 0.0137,0.0211 0.0126,0.054 0.0332,0.0681 0.0184,0.0126 0.048,-0.0126 0.0664,0 0.12125,0.083 -0.0356,0.0499 0.0664,0.10221 0.10073,0.0517 0.13115,0.15249 0.16592,0.17034 0.0543,0.0279 0.0874,0.0323 0.13274,0.1022 0.006,0.009 -0.008,0.026 0,0.0341 0.0175,0.018 0.0489,0.0161 0.0664,0.0341 0.0884,0.0907 0.10709,0.17808 0.16592,0.23847 0.0375,0.0385 0.14466,0.10483 0.16593,0.17034 0.017,0.0524 -0.0289,0.0938 0.0332,0.13627 0.0184,0.0126 0.0507,-0.016 0.0664,0 0.0156,0.016 -0.0123,0.0492 0,0.0681 0.0137,0.0211 0.0489,0.0161 0.0664,0.0341 0.0567,0.0582 0.0813,0.23625 0.13274,0.30661 0.0153,0.021 0.09,0.029 0.0995,0.0681 0.0107,0.0441 -0.0313,0.10415 0,0.13627 0.0687,0.0705 -0.003,-0.10771 0.0664,0.0341 0.01,0.0203 -0.01,0.0478 0,0.0681 0.014,0.0287 0.0524,0.0394 0.0664,0.0681 0.0544,0.11178 0.0644,0.2354 0.13274,0.34069 0.0174,0.0267 0.0524,0.0394 0.0664,0.0681 0.16025,0.32903 -0.0427,-0.0635 0.0332,0.17034 0.005,0.0152 0.0262,0.0197 0.0332,0.0341 0.024,0.0493 0.0203,0.11754 0.0332,0.17034 -0.02,0.0617 0.0538,0.0634 0.0664,0.1022 0.002,0.007 -0.0111,0.12494 0,0.13628 0.008,0.008 0.0254,-0.008 0.0332,0 0.0197,0.0202 0.0251,0.26417 0.0996,0.34067"
       id="path6133" />
    <path
       style="fill:none;fill-opacity:1;stroke:#000000;stroke-width:0.424389;stroke-dasharray:none;stroke-dashoffset:0;stroke-opacity:1"
       d="m 30.392734,11.145255 c 0.16226,0.0319 0.14371,0.11347 0.23229,0.2044 0.0404,0.0415 0.0742,0.0159 0.0995,0.0681 0.005,0.0102 -0.01,0.029 0,0.0341 0.16403,0.0842 -0.007,-0.0756 0.0996,0.0341 0.0175,0.018 0.0111,0.0568 0.0332,0.0681 0.0198,0.0102 0.048,-0.0126 0.0664,0 0.046,0.0315 0.0553,0.1022 0.0996,0.13627 0.0501,0.0386 0.26882,0.15846 0.29867,0.20441 0.0123,0.0189 -0.0184,0.0555 0,0.0681 0.0276,0.0189 0.0687,-0.0127 0.0995,0 0.10819,0.0445 0.0339,0.10294 0.0996,0.17034 0.0252,0.0259 0.13116,0.0324 0.16593,0.0681 0.0885,0.1817 -0.0332,-0.0341 0.0996,0.10221 0.008,0.008 -0.008,0.026 0,0.0341 0.0111,0.0113 0.0885,0.0227 0.0995,0.0341 0.008,0.008 -0.008,0.026 0,0.0341 0.0199,0.0204 0.0734,0.0279 0.0996,0.0681 0.0137,0.0211 0.0126,0.054 0.0332,0.0681 0.0184,0.0126 0.048,-0.0126 0.0664,0 0.12125,0.083 -0.0356,0.0499 0.0664,0.10221 0.10073,0.0517 0.13115,0.15249 0.16592,0.17033 0.0543,0.0279 0.0874,0.0323 0.13274,0.10221 0.006,0.009 -0.008,0.026 0,0.0341 0.0175,0.018 0.0489,0.0161 0.0664,0.0341 0.0884,0.0907 0.10709,0.17808 0.16592,0.23848 0.0375,0.0385 0.14466,0.10483 0.16593,0.17034 0.017,0.0524 -0.0289,0.0938 0.0332,0.13627 0.0184,0.0126 0.0507,-0.016 0.0664,0 0.0156,0.016 -0.0123,0.0492 0,0.0681 0.0137,0.0211 0.0489,0.0161 0.0664,0.0341 0.0567,0.0582 0.0813,0.23625 0.13274,0.30661 0.0153,0.021 0.09,0.0289 0.0995,0.0681 0.0107,0.0441 -0.0313,0.10415 0,0.13627 0.0687,0.0705 -0.003,-0.10771 0.0664,0.0341 0.01,0.0203 -0.01,0.0478 0,0.0681 0.014,0.0287 0.0524,0.0394 0.0664,0.0681 0.0544,0.11177 0.0644,0.2354 0.13274,0.34068 0.0174,0.0267 0.0524,0.0394 0.0664,0.0681 0.16025,0.32902 -0.0427,-0.0635 0.0332,0.17034 0.005,0.0152 0.0262,0.0197 0.0332,0.0341 0.024,0.0493 0.0203,0.11754 0.0332,0.17034 -0.02,0.0617 0.0538,0.0634 0.0664,0.1022 0.002,0.007 -0.0111,0.12494 0,0.13627 0.008,0.008 0.0254,-0.008 0.0332,0 0.0197,0.0202 0.0251,0.26417 0.0996,0.34068"
       id="path6123" />
  </g>
</svg>
