<?xml version="1.0" encoding="UTF-8" standalone="no"?>
<!-- Created with Inkscape (http://www.inkscape.org/) -->

<svg
   width="218.72421"
   height="300.80966"
   viewBox="0 0 57.870781 79.589223"
   version="1.1"
   id="svg7417"
   inkscape:version="1.2.2 (732a01da63, 2022-12-09)"
   sodipodi:docname="interruptor_off.svg"
   xmlns:inkscape="http://www.inkscape.org/namespaces/inkscape"
   xmlns:sodipodi="http://sodipodi.sourceforge.net/DTD/sodipodi-0.dtd"
   xmlns="http://www.w3.org/2000/svg"
   xmlns:svg="http://www.w3.org/2000/svg">
  <sodipodi:namedview
     id="namedview7419"
     pagecolor="#ffffff"
     bordercolor="#000000"
     borderopacity="0.25"
     inkscape:showpageshadow="2"
     inkscape:pageopacity="0.0"
     inkscape:pagecheckerboard="0"
     inkscape:deskcolor="#d1d1d1"
     inkscape:document-units="mm"
     showgrid="false"
     inkscape:lockguides="false"
     inkscape:zoom="3.7522727"
     inkscape:cx="276.23259"
     inkscape:cy="188.15264"
     inkscape:window-width="3840"
     inkscape:window-height="2054"
     inkscape:window-x="-11"
     inkscape:window-y="-11"
     inkscape:window-maximized="1"
     inkscape:current-layer="layer1" />
  <defs
     id="defs7414">
    <rect
       x="280.36343"
       y="1034.04"
       width="133.78558"
       height="76.220474"
       id="rect5922" />
  </defs>
  <g
     inkscape:label="Capa 1"
     inkscape:groupmode="layer"
     id="layer1"
     transform="translate(-2.5761839,-2.0878668)">
    <g
       id="g6105"
       transform="matrix(0.4537552,0,0,0.4537552,-19.075673,-40.560182)">
      <g
         id="g6078">
        <g
           id="g6052">
          <g
             id="g6027">
            <g
               id="g6003">
              <path
                 style="fill:#bcb6b6;fill-opacity:1;stroke:#000000;stroke-width:0.89;stroke-dasharray:none;stroke-dashoffset:0;stroke-opacity:1"
                 d="m 100.76282,150.1923 v 52.10898 h 23.19872 v -52.53206 z"
                 id="path1565" />
              <path
                 style="fill:none;fill-opacity:1;stroke:#000000;stroke-width:0.89;stroke-dasharray:none;stroke-dashoffset:0;stroke-opacity:1"
                 d="M 48.16485,94.435015 H 174.80949 V 268.94535 H 49.261772 Z"
                 id="path1362" />
              <path
                 style="fill:none;fill-opacity:1;stroke:#000000;stroke-width:0.89;stroke-dasharray:none;stroke-dashoffset:0;stroke-opacity:1"
                 d="M 60.629873,104.90564 H 164.03971 V 254.8848 H 60.230992 Z"
                 id="path1364" />
              <path
                 style="fill:none;fill-opacity:1;stroke:#000000;stroke-width:0.89;stroke-dasharray:none;stroke-dashoffset:0;stroke-opacity:1"
                 d="M 48.16485,94.335297 61.128475,104.80591"
                 id="path1366" />
              <path
                 style="fill:none;fill-opacity:1;stroke:#000000;stroke-width:0.89;stroke-dasharray:none;stroke-dashoffset:0;stroke-opacity:1"
                 d="M 174.80949,94.335297 163.74055,104.90564"
                 id="path1368" />
              <path
                 style="fill:none;fill-opacity:1;stroke:#000000;stroke-width:0.89;stroke-dasharray:none;stroke-dashoffset:0;stroke-opacity:1"
                 d="M 49.062332,268.74591 60.230992,254.8848"
                 id="path1370" />
              <path
                 style="fill:none;fill-opacity:1;stroke:#000000;stroke-width:0.89;stroke-dasharray:none;stroke-dashoffset:0;stroke-opacity:1"
                 d="M 174.37431,268.96246 163.90369,254.70247"
                 id="path1372" />
              <ellipse
                 style="fill:none;fill-opacity:1;stroke:#000000;stroke-width:0.89;stroke-dasharray:none;stroke-dashoffset:0;stroke-opacity:1"
                 id="path1434"
                 cx="113.34936"
                 cy="118.35577"
                 rx="6.0288463"
                 ry="6.6634612" />
              <path
                 style="fill:none;fill-opacity:1;stroke:#000000;stroke-width:0.935282;stroke-dasharray:none;stroke-dashoffset:0;stroke-opacity:1"
                 d="m 109.27624,113.52432 c 0.35759,0.0703 0.31671,0.25006 0.51193,0.45047 0.0891,0.0915 0.1634,0.0351 0.21939,0.15017 0.0109,0.0224 -0.0218,0.0639 0,0.0751 0.3615,0.18556 -0.0161,-0.16659 0.21941,0.0751 0.0386,0.0396 0.0244,0.12514 0.0731,0.15017 0.0436,0.0224 0.1057,-0.0278 0.14626,0 0.10143,0.0694 0.12189,0.22524 0.2194,0.30031 0.11036,0.085 0.59244,0.34922 0.65821,0.45049 0.0271,0.0416 -0.0405,0.12239 0,0.15015 0.0609,0.0416 0.1515,-0.0279 0.21939,0 0.23844,0.098 0.0747,0.22686 0.2194,0.37541 0.0555,0.057 0.28906,0.0714 0.36568,0.15015 0.19502,0.40043 -0.0731,-0.0751 0.2194,0.22524 0.0172,0.0177 -0.0172,0.0574 0,0.0751 0.0244,0.025 0.19502,0.05 0.21939,0.0751 0.0172,0.0177 -0.0172,0.0574 0,0.0751 0.0439,0.045 0.16179,0.0614 0.21941,0.15017 0.0303,0.0465 0.0278,0.11911 0.0731,0.15015 0.0405,0.0278 0.1057,-0.0278 0.14627,0 0.26722,0.1829 -0.0784,0.10992 0.14627,0.22524 0.22198,0.11396 0.28903,0.33607 0.36566,0.3754 0.1197,0.0614 0.19253,0.0712 0.29254,0.22524 0.0135,0.0209 -0.0172,0.0574 0,0.0751 0.0386,0.0396 0.10772,0.0354 0.14627,0.0751 0.19477,0.19996 0.23601,0.39246 0.36566,0.52556 0.0826,0.0848 0.3188,0.23103 0.36568,0.3754 0.0375,0.11557 -0.0638,0.20663 0.0731,0.30032 0.0406,0.0278 0.11179,-0.0353 0.14627,0 0.0344,0.0353 -0.0271,0.10852 0,0.15016 0.0303,0.0465 0.10772,0.0355 0.14626,0.0751 0.12501,0.12834 0.17925,0.52066 0.29253,0.67572 0.0338,0.0462 0.19836,0.0638 0.21941,0.15016 0.0236,0.0971 -0.069,0.22953 0,0.30032 0.15131,0.15535 -0.006,-0.23738 0.14626,0.0751 0.0218,0.0447 -0.0218,0.10542 0,0.15016 0.0308,0.0633 0.11543,0.0869 0.14627,0.15016 0.11997,0.24633 0.14186,0.51877 0.29253,0.75081 0.0383,0.0589 0.11544,0.0869 0.14627,0.15015 0.35316,0.72512 -0.0942,-0.14002 0.0731,0.37541 0.0109,0.0335 0.0577,0.0434 0.0731,0.0751 0.0529,0.10865 0.0448,0.25904 0.0731,0.3754 -0.0441,0.13589 0.11846,0.13964 0.14626,0.22524 0.005,0.0151 -0.0244,0.27534 0,0.30032 0.0172,0.0177 0.0559,-0.0177 0.0731,0 0.0434,0.0445 0.0552,0.58219 0.21939,0.7508"
                 id="path1505" />
              <rect
                 style="fill:#f9f4f4;fill-opacity:1;stroke:#000000;stroke-width:0.897614;stroke-dasharray:none;stroke-dashoffset:0;stroke-opacity:1"
                 id="rect1559"
                 width="18.297247"
                 height="18.537256"
                 x="113.26023"
                 y="145.25801" />
              <rect
                 style="fill:#d5cbcb;fill-opacity:1;stroke:#000000;stroke-width:0.962247;stroke-dasharray:none;stroke-dashoffset:0;stroke-opacity:1"
                 id="rect1749"
                 width="17.910255"
                 height="21.018486"
                 x="212.7229"
                 y="191.71742"
                 transform="matrix(1,0,-0.51784565,0.85547407,0,0)" />
              <rect
                 style="fill:#f0f0f0;fill-opacity:1;stroke:#000000;stroke-width:1.16881;stroke-dasharray:none;stroke-dashoffset:0;stroke-opacity:1"
                 id="rect1842"
                 width="20.303785"
                 height="18.927172"
                 x="187.64992"
                 y="321.54114"
                 transform="matrix(0.53095299,-0.84740127,0.00736567,0.99997287,0,0)" />
              <ellipse
                 style="fill:none;fill-opacity:1;stroke:#000000;stroke-width:0.89;stroke-dasharray:none;stroke-dashoffset:0;stroke-opacity:1"
                 id="ellipse1844"
                 cx="113.34936"
                 cy="236.36011"
                 rx="6.0288463"
                 ry="6.6634612" />
              <path
                 style="fill:none;fill-opacity:1;stroke:#000000;stroke-width:0.935282;stroke-dasharray:none;stroke-dashoffset:0;stroke-opacity:1"
                 d="m 109.27624,231.52866 c 0.35759,0.0703 0.31671,0.25006 0.51193,0.45047 0.0891,0.0915 0.1634,0.0351 0.21939,0.15017 0.0109,0.0224 -0.0218,0.0639 0,0.0751 0.3615,0.18556 -0.0161,-0.16659 0.21941,0.0751 0.0386,0.0396 0.0244,0.12514 0.0731,0.15017 0.0436,0.0224 0.1057,-0.0278 0.14626,0 0.10143,0.0694 0.12189,0.22524 0.2194,0.30031 0.11036,0.085 0.59244,0.34922 0.65821,0.45049 0.0271,0.0416 -0.0405,0.12239 0,0.15015 0.0609,0.0416 0.1515,-0.0279 0.21939,0 0.23844,0.098 0.0747,0.22686 0.2194,0.37541 0.0555,0.057 0.28906,0.0714 0.36568,0.15015 0.19502,0.40043 -0.0731,-0.0751 0.2194,0.22524 0.0172,0.0177 -0.0172,0.0574 0,0.0751 0.0244,0.025 0.19502,0.05 0.21939,0.0751 0.0172,0.0177 -0.0172,0.0574 0,0.0751 0.0439,0.045 0.16179,0.0614 0.21941,0.15017 0.0303,0.0465 0.0278,0.11911 0.0731,0.15015 0.0405,0.0278 0.1057,-0.0278 0.14627,0 0.26722,0.1829 -0.0784,0.10992 0.14627,0.22524 0.22198,0.11396 0.28903,0.33607 0.36566,0.3754 0.1197,0.0614 0.19253,0.0712 0.29254,0.22524 0.0135,0.0209 -0.0172,0.0574 0,0.0751 0.0386,0.0396 0.10772,0.0354 0.14627,0.0751 0.19477,0.19996 0.23601,0.39246 0.36566,0.52556 0.0826,0.0848 0.3188,0.23103 0.36568,0.3754 0.0375,0.11557 -0.0638,0.20663 0.0731,0.30032 0.0406,0.0278 0.11179,-0.0353 0.14627,0 0.0344,0.0353 -0.0271,0.10852 0,0.15016 0.0303,0.0465 0.10772,0.0355 0.14626,0.0751 0.12501,0.12834 0.17925,0.52066 0.29253,0.67572 0.0338,0.0462 0.19836,0.0638 0.21941,0.15016 0.0236,0.0971 -0.069,0.22953 0,0.30032 0.15131,0.15535 -0.006,-0.23738 0.14626,0.0751 0.0218,0.0447 -0.0218,0.10542 0,0.15016 0.0308,0.0633 0.11543,0.0869 0.14627,0.15016 0.11997,0.24633 0.14186,0.51877 0.29253,0.75081 0.0383,0.0589 0.11544,0.0869 0.14627,0.15015 0.35316,0.72512 -0.0942,-0.14002 0.0731,0.37541 0.0109,0.0335 0.0577,0.0434 0.0731,0.0751 0.0529,0.10865 0.0448,0.25904 0.0731,0.3754 -0.0441,0.13589 0.11846,0.13964 0.14626,0.22524 0.005,0.0151 -0.0244,0.27534 0,0.30032 0.0172,0.0177 0.0559,-0.0177 0.0731,0 0.0434,0.0445 0.0552,0.58219 0.21939,0.7508"
                 id="path1846" />
              <path
                 style="fill:#b3aaaa;fill-opacity:1;stroke:#000000;stroke-width:1.79293;stroke-dasharray:none;stroke-dashoffset:0;stroke-opacity:1"
                 d="m 210.55021,376.97153 -21.94303,-17.72259 116.81201,-0.13445 c 64.24659,-0.0739 169.18057,-0.0739 233.1866,0 l 116.3746,0.13445 -18.47748,17.6925 -18.47747,17.69249 -192.7661,0.0301 -192.7661,0.0301 z"
                 id="path2400"
                 transform="scale(0.26458333)" />
              <path
                 style="fill:#928c8c;fill-opacity:1;stroke:#000000;stroke-width:1.79293;stroke-dasharray:none;stroke-dashoffset:0;stroke-opacity:1"
                 d="m 188.13626,1008.1699 c -0.087,-4.1462 -4.12332,-647.33482 -4.06258,-647.37274 0.0448,-0.0279 9.73553,7.76213 21.53504,17.31127 l 21.45367,17.36208 -0.0467,58.10969 c -0.0257,31.96032 -0.32755,159.5682 -0.67078,283.57304 l -0.62406,225.46336 -18.04835,22.38643 c -20.41088,25.31677 -19.51343,24.25257 -19.53621,23.16687 z"
                 id="path2816"
                 transform="scale(0.26458333)" />
              <path
                 style="fill:#767070;fill-opacity:1;stroke:#000000;stroke-width:1.79293;stroke-dasharray:none;stroke-dashoffset:0;stroke-opacity:1"
                 d="m 189.85469,1013.595 c 0.38307,-0.5446 9.31996,-11.6979 19.85976,-24.78502 l 19.16326,-23.79484 h 194.92832 194.92832 l 17.50139,23.82594 c 9.62576,13.10422 17.81481,24.25752 18.19787,24.78502 0.67031,0.9229 -8.06368,0.959 -232.28945,0.959 -226.92898,0 -232.96785,-0.026 -232.28947,-0.9901 z"
                 id="path4060"
                 transform="scale(0.26458333)" />
              <path
                 style="fill:#f1e9e9;fill-opacity:1;stroke:#000000;stroke-width:1.79293;stroke-dasharray:none;stroke-dashoffset:0;stroke-opacity:1"
                 d="m 640.27862,987.57758 -18.2556,-24.87687 0.051,-283.33703 0.051,-283.33703 18.20459,-17.32283 18.20458,-17.32284 0.13412,163.01167 c 0.0738,89.65642 0.0738,236.14795 0,325.53674 l -0.13412,162.52501 z"
                 id="path4890"
                 transform="scale(0.26458333)" />
              <path
                 style="fill:#f9f6f6;fill-opacity:1;stroke:#000000;stroke-width:1.79293;stroke-dasharray:none;stroke-dashoffset:0;stroke-opacity:1"
                 d="m 229.90633,841.75651 c 0.19433,-65.74016 0.47948,-187.04664 0.63366,-269.56996 0.15419,-82.52332 0.42092,-155.37916 0.59274,-161.90187 l 0.31241,-11.85948 h 193.4234 193.4234 V 679.85463 961.28407 H 423.92247 229.553 Z m 206.00707,77.36592 c 7.9181,-2.67398 14.27422,-9.95502 16.34023,-18.71801 3.40292,-14.43349 -4.11152,-29.11752 -16.88634,-32.99775 -2.94078,-0.89324 -4.67587,-1.07877 -8.41612,-0.89995 -4.10768,0.19639 -5.22295,0.47798 -8.70075,2.1968 -9.05533,4.47539 -14.40291,13.61706 -14.40291,24.62174 0,12.2724 6.7095,22.23039 17.49017,25.95825 3.83874,1.32741 10.3822,1.2551 14.57572,-0.16108 z m 34.73469,-202.67246 v -50.28534 l 13.3358,-22.07081 c 7.33469,-12.13894 13.81077,-22.39988 14.39128,-22.80208 1.03467,-0.71686 1.05548,-1.45506 1.05548,-37.44397 v -36.7127 H 463.48952 427.5484 l -0.17032,-1.19156 c -0.1261,-0.88218 -1.82982,1.4704 -6.56201,9.06118 l -6.39168,10.25273 -7.73309,0.002 c -4.2532,10e-4 -12.23037,0.15868 -17.72704,0.35078 l -9.99394,0.34918 v 100.38817 100.38816 h 45.83889 45.83888 z M 436.32504,472.96579 c 10.70174,-3.94867 17.27923,-14.81126 16.57253,-27.36918 -0.58723,-10.43505 -5.78912,-18.65247 -14.55784,-22.99699 -10.90537,-5.40313 -24.34423,-1.03083 -30.75188,10.00507 -2.54188,4.37787 -3.69704,8.82168 -3.72362,14.32444 -0.0404,8.36765 2.29699,14.40297 7.79593,20.12954 6.57083,6.84284 16.00519,9.10232 24.66488,5.90712 z"
                 id="path5866"
                 transform="scale(0.26458333)" />
              <text
                 xml:space="preserve"
                 transform="matrix(0.25988053,0,0,0.42072653,32.329678,-249.72792)"
                 id="text5920"
                 style="font-style:normal;font-variant:normal;font-weight:normal;font-stretch:normal;font-size:32px;font-family:'MV Boli';-inkscape-font-specification:'MV Boli';white-space:pre;shape-inside:url(#rect5922);display:inline;fill:#f9f6f6;fill-opacity:1;stroke:#000000;stroke-width:3.36378;stroke-dasharray:none;stroke-dashoffset:0;stroke-opacity:1"><tspan
                   x="280.36328"
                   y="1062.3504"
                   id="tspan329">ON</tspan></text>
            </g>
          </g>
        </g>
      </g>
    </g>
  </g>
</svg>
