<svg version="1.1" xmlns="http://www.w3.org/2000/svg" xmlns:xlink="http://www.w3.org/1999/xlink" width="42.23748" height="35.26082" viewBox="0,0,42.23748,35.26082"><g transform="translate(-218.13667,-167.33567)"><g data-paper-data="{&quot;isPaintingLayer&quot;:true}" fill-rule="nonzero" stroke-width="1" stroke-linecap="butt" stroke-linejoin="miter" stroke-miterlimit="10" stroke-dasharray="" stroke-dashoffset="0" style="mix-blend-mode: normal"><g stroke="none"><path d="M233.37963,184.01748l-3.95863,0.23136l0.39797,-2.9973l1.02591,-4.08297l0.86539,-2.02579l2.75877,-0.41906l1.4413,0.03819l-1.12601,2.19349l-1.13179,4.2852c0,0 -0.35697,2.41966 -0.34009,2.48845z" data-paper-data="{&quot;origPos&quot;:null}" fill="#897ab8"/><path d="M233.24479,187.69426l-0.0641,1.00707l0.30723,1.83909l0.53133,1.86373l0.67456,1.40031l0.55359,1.02344l0.65623,0.68989l-4.05038,0.15434l-1.29637,-1.97731l-0.8534,-3.14271l-0.48909,-2.74217l0.14626,-1.28353l3.86653,0.42001l0.01761,0.74781" data-paper-data="{&quot;origPos&quot;:null}" fill="#897ab8"/><path d="M236.05121,195.59654l-0.87364,-0.95733l-0.92246,-1.94868l-0.97943,-2.6227l-0.07027,-2.29977l0.01781,-0.67228l3.8718,0.22108l2.11507,0.05605l1.49541,-0.53559l0.67291,-0.70232l0.19977,-0.70464l-0.64479,-0.87644l-0.71874,-0.44885l-1.75516,-0.21463l-2.13748,0.07432l-3.01617,0.01337l0.01929,-0.72813l0.46978,-2.88314l1.12992,-3.76266l0.90007,-1.45213l0.57299,-0.41437l4.04889,-0.09826l6.24336,0.5017l3.78706,0.58603l3.76479,1.42632l1.79047,1.00009l1.36196,0.91413l1.24868,1.65849l-0.54464,0.52112l-0.38985,1.16581l-0.36841,2.23925l0.2831,2.04375l0.53776,1.62094l0.44856,0.59111l-1.53669,1.58468l-2.21594,1.62257l-2.89853,1.23105l-2.60356,0.69956l-2.70618,0.44889l-2.70328,0.32049l-3.45967,0.31343l-4.4346,0.4677" data-paper-data="{&quot;origPos&quot;:null}" fill="#c1b4d8"/><path d="M258.33606,188.30301l-0.56998,-1.11093l-0.29143,-2.19987l0.05409,-2.04105l0.56974,-1.70359l0.53301,-0.31764l0.34922,0.00925l0.71598,1.25897c0,0 0.32855,1.74062 0.27671,1.81407c-0.05183,0.07321 -0.06332,2.38952 -0.06332,2.38952l-0.5907,1.55363l-0.54731,0.85732z" data-paper-data="{&quot;origPos&quot;:null}" fill="#ef463c"/><path d="M231.71027,175.14279l-0.44311,-1.18266l-1.10476,-0.72673l-1.36681,-0.26022l-1.52585,0.08404l-3.03313,0.41777l-1.35243,0.13853l-0.14322,-0.253l0.36069,-0.41376l1.1483,-0.91623l1.87291,-0.9342l2.46084,-1.44195l3.15551,-1.26141l3.26457,-0.66084l2.80326,-0.22455l1.54089,0.29003l1.41272,0.41085l1.25061,0.88002l0.66902,1.13875l0.40862,1.92883l-0.65396,2.62308l-5.31624,-0.14087l-3.97725,0.21864l-1.43118,0.28586" data-paper-data="{&quot;origPos&quot;:null}" fill="#ef463c"/><path d="M241.30107,186.4567l-0.71124,0.45461l-1.13377,0.36832l-2.29894,0.03886l-3.06254,-0.35505l-3.53624,-0.39279l-4.68175,-0.52268l-3.60139,-0.76793l-0.43996,-0.36039l2.33178,-0.33683l3.35306,-0.23493l2.67467,-0.07854l3.2754,-0.13746l2.82554,-0.12419l2.05207,-0.14518l1.24348,0.20731l0.91671,0.27349l0.6823,0.64719l0.38104,0.70131l-0.27022,0.76488" data-paper-data="{&quot;origPos&quot;:null}" fill="#ef463c"/><path d="M241.62001,195.1589l0.82775,1.1926l-0.03726,1.86713l-0.57029,1.8283l-1.5272,1.60338l-1.50092,0.50826l-2.32782,0.18752l-2.71001,-0.47044l-3.91646,-1.12501l-3.26033,-1.38177l-1.30484,-0.70708l-0.26414,-0.40562l2.22127,0.05886l1.42285,0.03771l1.25841,-0.36502l1.04371,-0.74463l0.54401,-0.73293l0.29952,-0.93846l1.972,0.05226l2.67441,-0.07856l2.20228,-0.16589l2.95307,-0.22059" data-paper-data="{&quot;origPos&quot;:null}" fill="#ef463c"/><path d="M236.93337,202.59646c-0.28184,-0.00147 -0.55889,-0.04225 -0.84061,-0.04822c-0.13912,-0.00294 -0.26821,-0.02656 -0.40383,-0.04786c-0.31797,-0.04983 -0.62064,-0.11248 -0.93873,-0.14835c-0.40363,-0.04611 -0.79155,-0.20507 -1.18986,-0.28248c-0.37374,-0.07277 -0.71573,-0.16739 -1.08155,-0.27512c-0.08935,-0.02632 -0.1823,-0.0395 -0.27246,-0.06335c-0.20437,-0.05381 -0.41009,-0.10341 -0.61145,-0.16737c-0.19789,-0.06311 -0.38947,-0.14727 -0.58708,-0.21163c-0.1056,-0.03448 -0.22202,-0.03731 -0.3276,-0.0723c-0.20474,-0.06779 -0.40102,-0.16354 -0.60858,-0.21943c-0.37796,-0.10156 -0.73627,-0.24825 -1.09701,-0.39776c-0.39675,-0.16442 -0.8111,-0.2864 -1.21745,-0.42739c-0.02275,-0.00759 -0.04416,-0.01837 -0.06481,-0.03016c-0.18083,-0.10432 -0.35877,-0.2138 -0.54303,-0.31173c-0.10725,-0.05697 -0.24022,-0.07521 -0.3336,-0.14704c-0.18508,-0.14185 -0.38841,-0.20661 -0.60998,-0.2701c-0.20325,-0.05803 -0.38158,-0.21017 -0.51172,-0.40095c-0.0365,-0.05336 -0.13865,-0.05806 -0.20451,-0.09572c-0.26561,-0.15272 -0.52861,-0.30985 -0.79341,-0.46429c-0.06708,-0.03894 -0.1401,-0.06906 -0.20329,-0.1134c-0.03992,-0.028 -0.06664,-0.07435 -0.09801,-0.1136c-0.01087,-0.01327 -0.01419,-0.03879 -0.02679,-0.04336c-0.19199,-0.0692 -0.3823,-0.14533 -0.57897,-0.19768c-0.07084,-0.01908 -0.14245,0.00969 -0.13564,-0.10612c0.00164,-0.03338 -0.04157,-0.07893 -0.07509,-0.10327c-0.11551,-0.08438 -0.13284,-0.17389 -0.03686,-0.2841c0.08542,-0.09801 0.23653,-0.10573 0.33376,-0.0378c0.07372,0.05159 0.16731,0.07827 0.25514,0.10529c0.08388,0.02567 0.17404,0.03105 0.25766,0.05721c0.12196,0.03816 0.23791,0.09661 0.36101,0.1293c0.34778,0.09228 0.69658,0.1836 1.04804,0.25926c0.14361,0.03099 0.29597,0.02356 0.4445,0.02874c0.24223,0.00916 0.48471,0.01758 0.72686,0.01976c0.21897,0.00181 0.43844,0.00314 0.6566,-0.01104c0.2926,-0.01868 0.58513,-0.04437 0.87598,-0.08155c0.41048,-0.05224 0.81676,-0.12503 1.19317,-0.31287c0.09884,-0.04927 0.2159,-0.06138 0.31595,-0.10912c0.08211,-0.03922 0.15658,-0.10061 0.22578,-0.1614c0.2278,-0.20001 0.4808,-0.38088 0.67003,-0.6126c0.23668,-0.29033 0.50532,-0.57207 0.60408,-0.96631c-0.03609,-0.03114 -0.07484,-0.06558 -0.11462,-0.09857c-0.07128,-0.05877 -0.10952,-0.12165 -0.04084,-0.20962c0.06172,-0.07943 0.04229,-0.13682 -0.03389,-0.20869c-0.21247,-0.19995 -0.38625,-0.42881 -0.5141,-0.69686c-0.13139,-0.27537 -0.30928,-0.52853 -0.43666,-0.80506c-0.09719,-0.21061 -0.14892,-0.44247 -0.21834,-0.66557c-0.11288,-0.36219 -0.1469,-0.74475 -0.34538,-1.08652c-0.10496,-0.18114 -0.12149,-0.41357 -0.17531,-0.62328c-0.07279,-0.28381 -0.14837,-0.56692 -0.21214,-0.85275c-0.04481,-0.20075 -0.06831,-0.40616 -0.10761,-0.60801c-0.02455,-0.12812 -0.06938,-0.25302 -0.08966,-0.38179c-0.0457,-0.28982 -0.08588,-0.581 -0.12056,-0.87252c-0.03264,-0.27451 -0.06376,-0.54972 -0.07914,-0.82577c-0.01261,-0.2206 0.00501,-0.44313 -0.00185,-0.66458c-0.00362,-0.10835 -0.03219,-0.21613 -0.04977,-0.32435c-0.00109,-0.00577 -0.0082,-0.01069 -0.00806,-0.01593c0.00135,-0.07904 0.02961,-0.21374 0.00102,-0.22698c-0.11458,-0.05342 -0.24563,-0.0781 -0.37286,-0.09694c-0.30463,-0.04499 -0.61017,-0.08401 -0.91605,-0.11955c-0.33373,-0.03877 -0.66894,-0.06886 -1.00269,-0.10689c-0.13528,-0.01556 -0.26891,-0.04704 -0.40417,-0.06335c-0.60496,-0.0734 -1.21118,-0.13686 -1.81541,-0.21922c-0.21425,-0.02912 -0.42263,-0.101 -0.63403,-0.15325c-0.37965,-0.09438 -0.75535,-0.21558 -1.14044,-0.27443c-0.37763,-0.05791 -0.74916,-0.1104 -1.09345,-0.28716c-0.09524,-0.04892 -0.20881,-0.06491 -0.29965,-0.11994c-0.06604,-0.04016 -0.16438,-0.14155 -0.15046,-0.1771c0.04413,-0.11233 0.11362,-0.25866 0.21117,-0.29698c0.2226,-0.08815 0.46626,-0.12409 0.70328,-0.17269c0.16629,-0.03401 0.33498,-0.05548 0.50323,-0.07871c0.43313,-0.06012 0.86555,-0.13047 1.30073,-0.17358c0.42993,-0.04249 0.86296,-0.05171 1.2939,-0.0852c0.45617,-0.03506 0.91178,-0.07711 1.36675,-0.12368c0.34893,-0.03565 0.69567,-0.1023 1.04515,-0.12098c0.53383,-0.02876 1.06964,-0.02853 1.60453,-0.0408c0.02271,-0.00065 0.04508,-0.00704 0.06538,-0.01025c0.04654,-0.33528 0.10359,-0.66153 0.1345,-0.99024c0.0279,-0.29984 -0.00014,-0.60667 0.04687,-0.90276c0.0656,-0.41434 0.1794,-0.82068 0.26885,-1.23139c0.03318,-0.15054 0.05768,-0.30354 0.08318,-0.45578c0.03432,-0.2029 0.06168,-0.4072 0.09947,-0.60951c0.03113,-0.1678 0.06083,-0.33739 0.11227,-0.49942c0.1333,-0.41828 0.28221,-0.83167 0.41627,-1.24993c0.04487,-0.14025 0.04846,-0.29456 0.09828,-0.43268c0.10715,-0.2965 0.25063,-0.58081 0.34463,-0.88065c0.13788,-0.43961 0.32652,-0.85643 0.49844,-1.28168c0.06112,-0.15104 0.01401,-0.35908 -0.02279,-0.53317c-0.04347,-0.20471 -0.09608,-0.42186 -0.20676,-0.59392c-0.10013,-0.15631 -0.28011,-0.2641 -0.43131,-0.38535c-0.29287,-0.23451 -0.64819,-0.35318 -0.99336,-0.4681c-0.29994,-0.09949 -0.62832,-0.11418 -0.94398,-0.16695c-0.45199,-0.07559 -0.89777,-0.00908 -1.34662,0.0414c-0.29423,0.03336 -0.59459,0.00594 -0.8916,0.02177c-0.20609,0.01126 -0.4105,0.05299 -0.61639,0.07521c-0.13835,0.01504 -0.27849,0.01333 -0.41641,0.03137c-0.15769,0.02027 -0.31394,0.05205 -0.47013,0.08183c-0.45229,0.0863 -0.90246,0.18662 -1.35705,0.25589c-0.27376,0.04189 -0.55457,0.03968 -0.8325,0.05027c-0.1336,0.00519 -0.2678,-0.00411 -0.4016,-0.00965c-0.10838,-0.00463 -0.22706,-0.14821 -0.18773,-0.24844c0.03933,-0.10023 0.10369,-0.19456 0.17324,-0.27777c0.06233,-0.07442 0.14591,-0.13109 0.22119,-0.19469c0.42895,-0.36355 0.83963,-0.75254 1.29387,-1.082c0.36318,-0.26352 0.77862,-0.45556 1.17262,-0.67637c0.34056,-0.19078 0.68876,-0.36864 1.02456,-0.56753c0.39814,-0.23615 0.77723,-0.50624 1.18225,-0.72899c0.3792,-0.20846 0.78362,-0.37136 1.17356,-0.5611c0.24261,-0.1183 0.47436,-0.26033 0.71979,-0.37231c0.25049,-0.1146 0.51161,-0.20671 0.76845,-0.30691c0.44715,-0.17474 0.88943,-0.36357 1.34351,-0.51718c0.41934,-0.14205 0.85232,-0.24333 1.27768,-0.3675c0.27227,-0.07985 0.5366,-0.19881 0.81375,-0.24684c0.51347,-0.08867 1.03381,-0.13524 1.55053,-0.20562c0.1805,-0.02465 0.35759,-0.08956 0.53794,-0.09899c0.31024,-0.01647 0.62241,-0.00147 0.93355,-0.00445c0.14046,-0.00102 0.28114,-0.00977 0.42115,-0.02202c0.60305,-0.05213 1.20006,-0.02732 1.79257,0.11161c0.26973,0.06352 0.5504,0.08019 0.82123,0.13975c0.27033,0.0593 0.54139,0.12834 0.79974,0.2255c0.3033,0.1138 0.61014,0.23568 0.88507,0.40361c0.38269,0.23388 0.78964,0.46544 1.08816,0.78815c0.26603,0.28768 0.57341,0.58618 0.65859,1.01474c0.02704,0.13741 0.14216,0.25521 0.18969,0.39117c0.08348,0.23844 0.14078,0.48592 0.21796,0.72693c0.15346,0.47851 0.13605,0.94702 -0.00176,1.43154c-0.1601,0.56299 -0.26969,1.14056 -0.40205,1.71128c-0.01464,0.06298 -0.03497,0.12429 -0.06412,0.22604c0.24085,0.01412 0.46889,0.02141 0.69584,0.04189c0.47034,0.0424 0.9397,0.09275 1.40997,0.13739c0.22343,0.02139 0.44819,0.03083 0.67128,0.0557c0.42953,0.0483 0.85927,0.09711 1.28696,0.15783c0.62825,0.08898 1.25672,0.17898 1.88197,0.28659c0.55449,0.09526 1.10821,0.20073 1.65611,0.32851c0.52906,0.12327 1.05699,0.26074 1.57311,0.42908c0.5092,0.16641 1.00776,0.36745 1.50136,0.57659c0.27998,0.11867 0.53868,0.28742 0.81036,0.42733c0.11591,0.0597 0.21496,0.1626 0.37389,0.12341c0.05198,-0.01308 0.12584,0.05197 0.18653,0.08676c0.23592,0.13447 0.47494,0.26378 0.70459,0.40831c0.32165,0.20285 0.63444,0.41992 0.95427,0.62595c0.10497,0.06789 0.22215,0.11689 0.32995,0.18136c0.16208,0.09659 0.33466,0.18248 0.47713,0.30325c0.18469,0.15656 0.34925,0.33827 0.51312,0.51749c0.29091,0.31802 0.57212,0.64477 0.8625,0.96327c0.10593,0.11606 0.22848,0.21734 0.339,0.32952c0.02671,0.0274 0.03501,0.07203 0.05353,0.10769c0.11844,0.22789 0.23561,0.4565 0.35707,0.68297c0.11671,0.21762 0.2506,0.42721 0.35418,0.65096c0.14322,0.30913 0.27102,0.62581 0.39205,0.94456c0.03895,0.10206 0.04132,0.21986 0.0516,0.33113c0.04939,0.53662 0.12971,1.07333 0.13245,1.6102c0.00222,0.42487 -0.01959,0.86133 -0.20492,1.26601c-0.03573,0.07788 0.01389,0.19095 -0.01012,0.27837c-0.0858,0.31029 -0.16793,0.62342 -0.28611,0.92211c-0.10824,0.27227 -0.26289,0.5261 -0.39458,0.78928c-0.09376,0.18734 -0.17475,0.38177 -0.27858,0.56311c-0.05337,0.09338 -0.14359,0.16607 -0.21832,0.24691c-0.03594,0.03846 -0.07799,0.07201 -0.11149,0.11254c-0.12961,0.15596 -0.24367,0.3278 -0.38809,0.46866c-0.2988,0.29067 -0.61801,0.5606 -0.92074,0.84792c-0.30219,0.28684 -0.60784,0.57209 -0.88839,0.87946c-0.33398,0.36607 -0.76558,0.56566 -1.19717,0.77499c-0.10336,0.05014 -0.18327,0.1478 -0.28502,0.20348c-0.17313,0.09445 -0.35718,0.16839 -0.53221,0.25955c-0.20437,0.10633 -0.39672,0.23894 -0.6074,0.32915c-0.28233,0.12074 -0.57874,0.20817 -0.86626,0.3173c-0.12952,0.0492 -0.24905,0.12635 -0.37952,0.17353c-0.32341,0.11741 -0.64798,0.23253 -0.97646,0.33408c-0.44617,0.13784 -0.89561,0.26737 -1.34615,0.39088c-0.29073,0.07985 -0.58624,0.14238 -0.8797,0.21266c-0.38836,0.09297 -0.77519,0.19449 -1.16601,0.27617c-0.34389,0.0717 -0.69239,0.1196 -1.03806,0.18303c-0.05365,0.01005 -0.13237,0.03441 -0.14835,0.0729c-0.06774,0.16508 -0.21222,0.19543 -0.35688,0.23225c-0.07434,0.01899 -0.15666,0.01905 -0.22436,0.05117c-0.18365,0.08717 -0.31648,0.03527 -0.43035,-0.12066c-0.02407,-0.03332 -0.07808,-0.06569 -0.11703,-0.06422c-0.38577,0.01397 -0.77454,0.00966 -1.15534,0.06192c-0.36402,0.04972 -0.71809,0.16681 -1.07929,0.24205c-0.17106,0.03564 -0.34755,0.04967 -0.52271,0.06098c-0.3141,0.02036 -0.62913,0.02922 -0.94344,0.04858c-0.06145,0.00361 -0.12109,0.03221 -0.20728,0.05636c0.15683,0.29452 0.31891,0.56048 0.44162,0.84362c0.07358,0.16982 0.09134,0.36536 0.12384,0.55107c0.0416,0.23783 0.10953,0.47935 0.09976,0.71631c-0.01682,0.39966 0.0006,0.80573 -0.12651,1.19674c-0.12794,0.39423 -0.20431,0.81003 -0.37339,1.18472c-0.10547,0.23368 -0.2427,0.4513 -0.38578,0.66379c-0.11113,0.16468 -0.20808,0.35918 -0.3326,0.51153c-0.29469,0.36112 -0.78028,0.6683 -1.18335,0.8931c-0.17773,0.09906 -0.36761,0.12896 -0.55068,0.21291c-0.20528,0.09384 -0.40668,0.20101 -0.62831,0.25251c-0.2402,0.056 -0.4741,0.11889 -0.70763,0.18629c-0.25615,0.07378 -0.5574,0.05209 -0.82133,0.0618c-0.28191,0.01049 -0.55787,0.01341 -0.83598,0.01252zM258.54096,181.17298c-0.14043,0.24447 -0.38714,0.4138 -0.44127,0.72442c-0.06764,0.38784 -0.23043,0.76044 -0.28364,1.14917c-0.09024,0.65665 -0.12654,1.32071 -0.18371,1.96227c0.01712,0.05034 0.03112,0.07765 0.03536,0.10596c0.03335,0.22912 0.08066,0.45762 0.09403,0.68772c0.0259,0.44395 0.12112,0.8703 0.27044,1.28807c0.08132,0.22641 0.13742,0.46189 0.21748,0.689c0.0399,0.11331 0.10292,0.22024 0.16552,0.32417c0.0411,0.0682 0.09762,0.12831 0.15219,0.18737c0.03007,0.03273 0.07958,0.08468 0.10373,0.07658c0.04025,-0.01291 0.07723,-0.06207 0.09855,-0.1044c0.15772,-0.31312 0.29895,-0.6349 0.46871,-0.94147c0.22323,-0.40368 0.30049,-0.84414 0.37239,-1.28826c0.04059,-0.25187 0.07326,-0.50519 0.11063,-0.75764c0.03101,-0.21022 0.09071,-0.42016 0.08979,-0.63022c-0.00183,-0.39242 -0.02681,-0.78622 -0.06484,-1.17712c-0.02113,-0.21932 -0.06485,-0.44225 -0.13896,-0.649c-0.09268,-0.25838 -0.27335,-0.49118 -0.3325,-0.75366c-0.07811,-0.3473 -0.29471,-0.59826 -0.47641,-0.87696c-0.07192,-0.11017 -0.18897,-0.13597 -0.2575,-0.01606zM246.30439,175.69141c-0.19634,0.34901 -0.37434,0.71247 -0.51892,1.08531c-0.17592,0.45407 -0.31508,0.92309 -0.45888,1.38898c-0.09768,0.31645 -0.19345,0.63546 -0.25866,0.9595c-0.09252,0.46027 -0.07642,0.94488 -0.34193,1.3629c-0.03359,0.05299 -0.04916,0.12342 -0.0536,0.18741c-0.04692,0.65979 -0.0936,1.32008 -0.13231,1.9806c-0.01778,0.3041 -0.01166,0.60959 -0.0287,0.91371c-0.00845,0.14944 -0.06074,0.29673 -0.0657,0.44601c-0.0094,0.27938 0.00738,0.55946 0.00222,0.83896c-0.01001,0.53804 -0.04048,1.0758 -0.03902,1.61389c0.00135,0.60819 0.01995,1.21459 0.07542,1.82296c0.06488,0.71464 0.13933,1.42554 0.29841,2.12497c0.09716,0.42838 0.24322,0.84709 0.32759,1.27762c0.11272,0.57547 0.3758,1.08683 0.62042,1.60817c0.03681,0.07931 0.06012,0.16947 0.11298,0.23597c0.16633,0.20895 0.34132,0.4114 0.5181,0.6119c0.12206,0.13843 0.25529,0.24074 0.46125,0.14044c0.06923,-0.03359 0.16419,-0.01137 0.24656,-0.02266c0.24511,-0.03416 0.49136,-0.06405 0.73407,-0.11102c0.29537,-0.05703 0.5872,-0.13186 0.88124,-0.19567c0.2549,-0.05511 0.51452,-0.09114 0.76533,-0.16057c0.50661,-0.14048 1.00864,-0.29655 1.51205,-0.4481c0.37341,-0.11233 0.74726,-0.22292 1.11814,-0.3433c0.24533,-0.07981 0.48653,-0.17319 0.72817,-0.26483c0.25449,-0.09653 0.50922,-0.19205 0.75901,-0.29918c0.17814,-0.07635 0.34754,-0.17189 0.52144,-0.25758c0.20724,-0.10177 0.41733,-0.19797 0.62149,-0.30531c0.13003,-0.0684 0.25128,-0.15399 0.37753,-0.22997c0.11483,-0.06905 0.30791,-0.11632 0.33102,-0.2075c0.04647,-0.18161 0.18143,-0.19125 0.29593,-0.25757c0.16012,-0.09304 0.3336,-0.173 0.47026,-0.29386c0.52798,-0.4667 1.04774,-0.94334 1.56166,-1.42562c0.18316,-0.172 0.3411,-0.37086 0.51505,-0.56257c-0.08589,-0.06239 -0.20749,-0.10528 -0.24795,-0.18817c-0.14766,-0.30199 -0.30369,-0.60772 -0.38995,-0.9298c-0.1067,-0.3977 -0.14584,-0.81282 -0.21687,-1.22006c-0.04957,-0.28518 -0.10515,-0.56929 -0.15547,-0.85398c-0.03469,-0.19723 -0.0776,-0.39419 -0.09329,-0.59342c-0.01143,-0.14275 0.02061,-0.28831 0.02593,-0.43285c0.01175,-0.32123 0.00309,-0.64374 0.0335,-0.96299c0.02528,-0.26698 0.09736,-0.52975 0.14331,-0.79519c0.0674,-0.3881 0.12935,-0.7771 0.196,-1.16496c0.00588,-0.03326 0.03087,-0.06329 0.04738,-0.09403c0.06245,-0.11609 0.13846,-0.22683 0.18387,-0.34909c0.04943,-0.13339 0.04976,-0.28704 0.11047,-0.41315c0.04301,-0.08866 0.1103,-0.1899 0.25613,-0.18628c0.07703,0.00179 0.15538,-0.06498 0.23316,-0.10084c-0.03301,-0.06298 -0.05554,-0.13518 -0.10079,-0.18776c-0.25139,-0.29327 -0.50279,-0.58731 -0.76544,-0.87065c-0.22068,-0.23833 -0.44176,-0.48042 -0.69047,-0.68732c-0.20184,-0.16799 -0.4407,-0.29454 -0.67147,-0.42513c-0.35243,-0.19917 -0.70928,-0.39121 -1.06933,-0.57612c-0.56479,-0.2901 -1.13034,-0.57998 -1.70278,-0.85458c-0.37735,-0.18112 -0.76173,-0.3517 -1.15373,-0.49754c-0.40904,-0.15252 -0.82597,-0.29029 -1.24893,-0.39754c-0.6824,-0.17298 -1.36965,-0.33164 -2.06058,-0.46518c-0.45937,-0.08875 -0.9294,-0.12415 -1.39485,-0.18114c-0.17703,-0.02166 -0.35704,-0.02493 -0.53152,-0.05849c-0.29982,-0.05733 -0.5455,0.008 -0.69394,0.27223zM231.90261,174.8972c0.10072,-0.03574 0.18176,-0.0815 0.26684,-0.09171c0.45093,-0.05341 0.90292,-0.1008 1.35485,-0.14495c0.5047,-0.04974 1.00949,-0.10272 1.51529,-0.13745c0.39635,-0.02716 0.79493,-0.02633 1.19198,-0.04225c0.64801,-0.02599 1.29528,-0.06196 1.94311,-0.08147c0.37597,-0.01123 0.75279,0.00149 1.12917,0.00323c0.11772,0.00063 0.23572,-0.00024 0.35394,0.0009c0.28955,0.00243 0.57955,-0.00335 0.86856,0.0098c0.52621,0.02367 1.05153,0.06204 1.5778,0.08297c0.05632,0.00224 0.14672,-0.05823 0.16782,-0.11079c0.06305,-0.15748 0.1019,-0.32458 0.14516,-0.48906c0.10124,-0.38422 0.18786,-0.77279 0.30172,-1.15319c0.1169,-0.39153 0.21851,-0.78122 0.13286,-1.19183c-0.05026,-0.24056 -0.10827,-0.48007 -0.17057,-0.71769c-0.05392,-0.20548 -0.10327,-0.41432 -0.18314,-0.61026c-0.10962,-0.26882 -0.30573,-0.48355 -0.47439,-0.71751c-0.27454,-0.38045 -0.64133,-0.63064 -1.02352,-0.84581c-0.39619,-0.22329 -0.84278,-0.36158 -1.2731,-0.52066c-0.56125,-0.20719 -1.15534,-0.29578 -1.74344,-0.33705c-0.66379,-0.04653 -1.33517,0.00478 -2.00305,0.01852c-0.1832,0.00388 -0.36782,0.0147 -0.54866,0.04208c-0.39147,0.05947 -0.77908,0.15248 -1.17205,0.19419c-0.63913,0.06738 -1.26192,0.19631 -1.87003,0.40195c-0.37454,0.12678 -0.75116,0.2475 -1.12359,0.37982c-0.49105,0.17483 -0.98495,0.34358 -1.46641,0.54261c-0.38816,0.16059 -0.75705,0.36659 -1.13891,0.5433c-0.1518,0.07056 -0.31701,0.11158 -0.47259,0.17456c-0.0759,0.03067 -0.14056,0.08932 -0.21623,0.12074c-0.23988,0.10041 -0.48266,0.17803 -0.69503,0.35076c-0.21364,0.17369 -0.47267,0.2903 -0.72323,0.41737c-0.36587,0.18587 -0.70709,0.42004 -1.05092,0.6494c-0.02965,0.0077 -0.05836,0.01866 -0.08551,0.03565c-0.18746,0.11726 -0.39128,0.17498 -0.58655,0.27681c-0.24979,0.06946 -0.46953,0.20956 -0.6798,0.35042c-0.27122,0.18165 -0.49155,0.43798 -0.75276,0.63734c-0.14894,0.11355 -0.22577,0.24546 -0.25668,0.44245c0.26315,-0.03693 0.51118,-0.05879 0.75345,-0.10825c0.55454,-0.11352 1.10276,-0.26163 1.66051,-0.35511c0.51791,-0.0868 1.04445,-0.13222 1.56867,-0.17446c0.36372,-0.02953 0.73053,-0.03402 1.0956,-0.02959c0.35211,0.00409 0.70771,0.00828 1.05484,0.05914c0.67115,0.09836 1.2701,0.38912 1.84234,0.74627c0.16956,0.10577 0.31373,0.22882 0.40512,0.39463c0.11351,0.20656 0.19562,0.431 0.28233,0.65106c0.04534,0.1152 0.07103,0.23761 0.09819,0.33312zM234.63928,176.46117c0.10903,-0.40545 0.33463,-0.74821 0.57476,-1.08383c0.08885,-0.12436 0.17795,-0.24822 0.30226,-0.42105c-1.24122,0.02698 -2.42242,0.12389 -3.60188,0.31465c-0.01129,0.42601 -0.38075,0.72828 -0.48858,1.18241c0.44719,0.01185 0.87228,0.0296 1.29751,0.03264c0.38633,0.0025 0.77253,-0.01844 1.15853,-0.01295c0.12119,0.00171 0.24473,0.0464 0.36189,0.08692c0.18169,0.06244 0.36198,0.02706 0.3955,-0.09878zM230.59273,180.35832c0.36624,-0.02098 0.73217,-0.06741 1.09872,-0.07166c0.50828,-0.00599 1.01778,0.00801 1.52598,0.03321c0.19507,0.00966 0.28274,-0.0419 0.33533,-0.23782c0.18872,-0.70193 0.39874,-1.39806 0.59885,-2.09695c0.01073,-0.03788 0.02099,-0.08625 0.00664,-0.11881c-0.07572,-0.17363 -0.00758,-0.32599 0.05543,-0.48221c0.05714,-0.14217 0.10912,-0.28647 0.1708,-0.44947c-0.32007,-0.00848 -0.61027,-0.02341 -0.90067,-0.02211c-0.34777,0.00151 -0.69541,0.01699 -1.04311,0.02499c-0.02946,0.00072 -0.05889,-0.00854 -0.08849,-0.01158c-0.09998,-0.01088 -0.2003,-0.02826 -0.30032,-0.02915c-0.15137,-0.00152 -0.30532,0.02809 -0.45402,0.01017c-0.27202,-0.0329 -0.41274,0.03445 -0.49415,0.2825c-0.10691,0.32544 -0.19948,0.656 -0.31627,0.97793c-0.21471,0.59074 -0.41653,1.18431 -0.54338,1.80108c-0.02407,0.11761 -0.04665,0.23523 -0.07542,0.38016c0.16751,0.00444 0.29614,0.01708 0.42405,0.00974zM230.18086,184.00281c0.67518,-0.02552 1.35005,-0.05802 2.02517,-0.09052c0.257,-0.01215 0.51368,-0.03103 0.76803,-0.0465c-0.00675,-0.12191 -0.02612,-0.22868 -0.01638,-0.3327c0.03452,-0.36128 0.0626,-0.72448 0.12469,-1.08155c0.05123,-0.29549 0.16405,-0.58036 0.21777,-0.87553c0.04878,-0.26886 0.05835,-0.54525 0.07334,-0.81898c0.00173,-0.02765 -0.07612,-0.08358 -0.11945,-0.08623c-0.20148,-0.01232 -0.39813,0.03834 -0.59414,0.06409c-0.4323,0.05665 -0.87814,0.0124 -1.31853,0.00722c-0.0576,-0.00078 -0.11559,-0.02476 -0.17255,-0.02129c-0.24108,0.01407 -0.48176,0.04985 -0.72245,0.0487c-0.23845,-0.00083 -0.38233,0.07244 -0.43508,0.2933c-0.0785,0.32669 -0.15875,0.65358 -0.21367,0.98439c-0.05436,0.32858 -0.07991,0.66217 -0.11465,0.994c-0.02401,0.2286 -0.03808,0.45823 -0.06509,0.68649c-0.01546,0.13154 -0.01956,0.2392 0.15788,0.24565c0.13531,0.00509 0.27073,0.03486 0.40507,0.02944zM235.43398,186.89266c0.49677,0.04236 0.99363,0.08196 1.4907,0.12232c0.04132,0.00333 0.08327,0.0017 0.1249,0.00281c0.14058,0.00422 0.28263,-0.00049 0.42217,0.01492c0.14028,0.01569 0.27771,0.07221 0.41688,0.07341c0.24839,0.00184 0.49762,-0.01775 0.74568,-0.0406c0.28132,-0.02597 0.56802,-0.03883 0.84022,-0.10645c0.27671,-0.06874 0.53399,-0.21335 0.80832,-0.29588c0.392,-0.11758 0.70683,-0.31603 0.88186,-0.69878c0.01192,-0.02612 0.02752,-0.05964 0.05053,-0.0715c0.16458,-0.08295 0.16458,-0.19568 0.07679,-0.33747c-0.02654,-0.04336 -0.01557,-0.10892 -0.04108,-0.15325c-0.10539,-0.18365 -0.19075,-0.38871 -0.33346,-0.53842c-0.32766,-0.34319 -0.77212,-0.50538 -1.21159,-0.63951c-0.25709,-0.07864 -0.54294,-0.06976 -0.81699,-0.08301c-0.40234,-0.01989 -0.80347,-0.07541 -1.20789,0.01165c-0.22077,0.04728 -0.45151,0.05738 -0.67847,0.06484c-0.29337,0.00994 -0.5878,-0.00534 -0.88135,0.0016c-0.30327,0.00718 -0.60627,0.03232 -0.90958,0.041c-0.31205,0.0092 -0.62463,0.00964 -0.93696,0.0106c-0.1584,0.00029 -0.31656,-0.00914 -0.47493,-0.0101c-0.07731,-0.00055 -0.15479,0.00489 -0.23206,0.01231c-0.31807,0.02924 -0.63533,0.07445 -0.95422,0.08796c-0.57312,0.02398 -1.14676,0.02998 -1.7203,0.04173c-0.5109,0.01066 -1.02199,0.01882 -1.53283,0.02723c-0.136,0.00188 -0.27564,-0.01878 -0.40748,0.00491c-0.12331,0.02193 -0.21967,0.03435 -0.25456,-0.07086c-0.34145,0.05482 -0.66487,0.12607 -0.99216,0.15505c-0.53481,0.04719 -1.07251,0.06163 -1.60787,0.10108c-0.25018,0.01832 -0.49751,0.07014 -0.74736,0.09495c-0.38066,0.03731 -0.7644,0.05059 -1.1436,0.09917c-0.55416,0.07112 -1.10568,0.16452 -1.65867,0.2484l-0.00514,0.05274c0.06899,0.02278 0.13655,0.05275 0.20702,0.06685c0.09156,0.01814 0.188,0.01297 0.27741,0.03629c0.45237,0.1175 0.89671,0.2747 1.35512,0.35346c0.62427,0.10735 1.2588,0.15683 1.88919,0.23067c0.16139,0.01874 0.32371,0.03128 0.48473,0.0545c0.38964,0.05622 0.77894,0.11593 1.16773,0.17637c0.40245,0.0623 0.80376,0.13056 1.20629,0.18962c0.25146,0.03684 0.50434,0.06724 0.75744,0.08966c0.11124,0.00993 0.22565,-0.01498 0.33775,-0.00951c0.21176,0.0106 0.42292,0.0334 0.63458,0.0475c0.16707,0.01141 0.33556,0.00739 0.50115,0.02774c0.4187,0.0515 0.83606,0.1162 1.25474,0.16894c0.12431,0.01577 0.25326,-0.00276 0.37675,0.01573c0.5168,0.07756 1.03145,0.17001 1.54885,0.2436c0.29523,0.042 0.59408,0.06039 0.89175,0.08575zM230.28903,189.47555c0.38503,-0.00502 0.7699,-0.0225 1.15482,-0.03301c0.33101,-0.00919 0.66239,-0.02312 0.99332,-0.01957c0.19751,0.00199 0.39398,0.03389 0.59478,0.05268c0.00978,-0.05836 0.01736,-0.08111 0.01646,-0.10359c-0.0198,-0.52387 -0.04008,-1.04775 -0.06138,-1.57165c-0.00124,-0.02872 -0.00582,-0.06251 -0.02171,-0.08439c-0.12997,-0.17855 -0.09453,-0.35822 -0.0018,-0.55357c-0.09032,-0.03682 -0.1652,-0.07272 -0.24359,-0.09849c-0.16222,-0.05344 -0.32328,-0.12231 -0.49026,-0.1472c-0.29146,-0.04315 -0.58747,-0.05574 -0.88126,-0.08597c-0.26619,-0.02726 -0.53181,-0.08519 -0.79769,-0.08649c-0.33521,-0.0019 -0.67119,0.0351 -1.0056,0.06914c-0.04252,0.00436 -0.10564,0.08949 -0.1095,0.14103c-0.01002,0.13319 0.00384,0.26925 0.01574,0.40353c0.05525,0.62583 0.11725,1.25134 0.16725,1.87803c0.0132,0.161 0.12132,0.18506 0.2361,0.20257c0.14336,0.02176 0.28958,0.03885 0.4343,0.03695zM230.97551,192.6293c0.2031,-0.01158 0.40569,-0.03166 0.60866,-0.03775c0.18622,-0.00529 0.37338,0.0109 0.55942,0.00334c0.21576,-0.00875 0.43229,-0.05639 0.64626,-0.04474c0.37141,0.01982 0.74104,0.06802 1.12502,-0.07546c-0.04473,-0.10071 -0.09014,-0.18474 -0.11971,-0.27408c-0.19488,-0.59062 -0.39027,-1.18125 -0.57608,-1.77487c-0.04417,-0.14061 -0.04558,-0.29431 -0.08143,-0.43819c-0.01082,-0.04344 -0.06959,-0.10362 -0.10945,-0.10592c-0.16911,-0.00973 -0.33959,0.00322 -0.50961,-0.00029c-0.14211,-0.00252 -0.28401,-0.01352 -0.42562,-0.02624c-0.11249,-0.00996 -0.22424,-0.02864 -0.33637,-0.04234c-0.04078,-0.00507 -0.08481,-0.01872 -0.12272,-0.00974c-0.55956,0.13384 -1.12849,0.15045 -1.69952,0.13331c-0.1149,-0.00355 -0.15663,0.04624 -0.14013,0.14845c0.03045,0.18764 0.07319,0.37287 0.10014,0.56092c0.02216,0.152 0.00997,0.31107 0.0467,0.45898c0.05388,0.2167 0.14215,0.42508 0.20806,0.63936c0.06547,0.21227 0.11358,0.43006 0.18611,0.63952c0.03337,0.09642 0.09321,0.23844 0.16463,0.25456c0.15025,0.03416 0.31654,0.0004 0.47568,-0.00884zM234.47298,192.84671c0.19313,0.5534 0.56812,1.01159 0.82425,1.5315c0.14203,0.28788 0.35278,0.506 0.58793,0.70705c0.09562,0.08186 0.21836,0.18464 0.33056,0.18686c0.548,0.01053 1.09675,-0.00661 1.6449,-0.02053c0.16101,-0.00422 0.3218,-0.02839 0.48238,-0.04509c0.36944,-0.03786 0.73848,-0.07971 1.10835,-0.11481c0.33761,-0.03197 0.67616,-0.05293 1.01355,-0.08664c0.17258,-0.01713 0.3428,-0.06799 0.5151,-0.07491c0.29665,-0.0116 0.59503,0.01502 0.89063,-0.00334c0.4425,-0.02719 0.88343,-0.08061 1.32525,-0.11979c0.10477,-0.00945 0.21477,0.00968 0.31589,-0.01308c0.24766,-0.0548 0.48872,-0.14296 0.73782,-0.18649c0.26063,-0.04548 0.52752,-0.05437 0.79184,-0.07929c0.23856,-0.02237 0.47713,-0.04472 0.71869,-0.06726c-0.13687,-0.22888 -0.23678,-0.44954 -0.38565,-0.6306c-0.16745,-0.204 -0.29548,-0.41841 -0.37897,-0.66634c-0.09068,-0.26831 -0.20801,-0.52836 -0.28561,-0.80007c-0.07899,-0.27599 -0.12581,-0.56135 -0.18294,-0.84349c-0.06285,-0.31122 -0.11817,-0.62376 -0.18279,-0.93429c-0.08654,-0.41513 -0.19561,-0.82661 -0.26336,-1.24473c-0.06024,-0.37203 -0.08565,-0.75011 -0.11133,-1.12697c-0.02177,-0.31738 -0.01206,-0.63692 -0.03334,-0.95427c-0.04337,-0.65121 -0.09972,-1.30152 0.00955,-1.95142c0.01389,-0.08171 0.03353,-0.16398 0.03446,-0.24603c0.00596,-0.45134 -0.01198,-0.90356 0.01341,-1.3534c0.04181,-0.74 0.11301,-1.47847 0.16653,-2.21792c0.02101,-0.29429 0.03365,-0.58282 0.12515,-0.87274c0.07189,-0.22759 -0.03428,-0.50454 0.17782,-0.70472c0.01458,-0.01359 0.01166,-0.04509 0.01677,-0.0684c0.09716,-0.4377 0.19531,-0.87537 0.29123,-1.31335c0.01618,-0.07441 0.01603,-0.15299 0.03643,-0.22628c0.04143,-0.15107 0.09349,-0.29911 0.13739,-0.44986c0.05267,-0.17994 0.0858,-0.36715 0.15476,-0.54019c0.09917,-0.25006 0.23413,-0.48596 0.33307,-0.73628c0.08852,-0.2244 0.1395,-0.46376 0.22631,-0.6892c0.03831,-0.09951 0.12182,-0.18212 0.18802,-0.27015c0.07084,-0.09416 0.14535,-0.18548 0.23802,-0.30325c-0.10012,-0.0246 -0.15569,-0.04603 -0.21266,-0.05129c-0.33592,-0.0316 -0.6722,-0.05897 -1.00843,-0.08833c-0.32005,-0.02794 -0.63975,-0.05961 -0.96013,-0.08456c-0.29674,-0.02308 -0.59473,-0.03597 -0.89142,-0.06054c-0.22152,-0.01835 -0.44354,-0.08384 -0.65914,0.03192c-0.02126,0.01166 -0.05777,-0.00377 -0.08709,-0.0083c-0.34729,-0.0541 -0.69389,-0.11567 -1.04269,-0.16008c-0.19566,-0.02489 -0.39512,-0.02843 -0.5929,-0.02992c-0.36961,-0.00256 -0.73962,0.00984 -1.10914,0.00354c-0.21592,-0.00372 -0.43138,-0.04386 -0.64712,-0.04509c-0.28358,-0.00152 -0.56748,0.01838 -0.85117,0.03033c-0.37634,0.01622 -0.75327,0.05413 -1.12919,0.04467c-0.36346,-0.00888 -0.64031,0.14018 -0.89412,0.37118c-0.20193,0.18349 -0.35079,0.3978 -0.46887,0.64612c-0.14453,0.30524 -0.35094,0.58238 -0.48782,0.89032c-0.14906,0.3348 -0.26788,0.68612 -0.36655,1.03946c-0.16431,0.59032 -0.2999,1.18865 -0.45283,1.78228c-0.07119,0.27626 -0.16442,0.54718 -0.23064,0.8248c-0.07806,0.32895 -0.13976,0.66183 -0.20418,0.99363c-0.02025,0.10473 -0.01739,0.21406 -0.0406,0.31772c-0.05177,0.23111 -0.14382,0.45716 -0.16421,0.69011c-0.03168,0.3676 -0.02432,0.73897 -0.0209,1.10899c0.00183,0.1572 0.10783,0.23284 0.25903,0.22214c0.05298,-0.00384 0.1074,0.00409 0.16093,0.00801c0.1805,0.01326 0.36108,0.04199 0.54079,0.03803c0.45827,-0.0103 0.91618,-0.0548 1.374,-0.04865c0.60894,0.00791 1.21463,0.00674 1.81957,-0.07925c0.27893,-0.0395 0.56541,-0.04414 0.84788,-0.03791c0.23584,0.005 0.47211,0.0412 0.70585,0.07832c0.27301,0.04316 0.54641,0.08981 0.81323,0.15875c0.17119,0.04445 0.34764,0.107 0.49248,0.20438c0.49114,0.33057 0.86094,0.77789 1.16185,1.28302c0.02196,0.03726 0.01756,0.09052 0.02431,0.13684c0.04439,0.30202 -0.10354,0.54679 -0.22393,0.80702c-0.16164,0.34843 -0.42085,0.56582 -0.77051,0.70473c-0.14396,0.05731 -0.27127,0.1552 -0.40635,0.23494c-0.06511,0.03794 -0.15026,0.0504 -0.22865,0.08101c-0.0857,0.03365 -0.16069,0.10525 -0.24796,0.12289c-0.24275,0.04845 -0.48922,0.07759 -0.7344,0.11425c-0.00577,0.00084 -0.01199,0.00069 -0.01798,0.00103c-0.37415,0.00854 -0.74802,0.02583 -1.12213,0.0234c-0.27161,-0.00146 -0.54498,-0.0117 -0.81312,-0.04974c-0.378,-0.05342 -0.74938,-0.14933 -1.13721,-0.09499c-0.13547,0.01911 -0.27756,0.01584 -0.41381,-0.00098c-0.29836,-0.0366 -0.59439,-0.09583 -0.89332,-0.12994c-0.09425,-0.01098 -0.19881,0.05659 -0.2907,0.04093c-0.31386,-0.05421 -0.62498,-0.12757 -0.93619,-0.19768c-0.09993,-0.0226 -0.14642,-0.00014 -0.14485,0.10991c0.00285,0.20313 -0.01103,0.40681 -0.00068,0.60938c0.03234,0.62448 0.05241,1.25112 0.12001,1.87229c0.03126,0.28894 0.17914,0.56352 0.24386,0.85134c0.10534,0.46802 0.24851,0.92007 0.46616,1.34815c0.02394,0.04753 0.03649,0.101 0.05134,0.15252c0.06973,0.23958 0.12813,0.48309 0.2102,0.71874zM232.16708,195.42651c0.26948,-0.00259 0.53929,-0.00841 0.80932,-0.01398c0.21188,-0.00387 0.42382,-0.00997 0.63597,-0.01408c0.25981,-0.00509 0.51997,-0.00443 0.77944,-0.01577c0.18331,-0.00811 0.36574,-0.03944 0.549,-0.04581c0.17254,-0.00615 0.34555,0.00692 0.53974,0.01206c-0.09739,-0.2408 -0.25453,-0.38242 -0.44197,-0.47244c-0.21676,-0.10403 -0.3415,-0.27321 -0.43385,-0.47796c-0.10485,-0.23252 -0.20313,-0.46786 -0.30343,-0.70226c-0.00914,-0.02169 -0.02362,-0.05001 -0.0169,-0.06831c0.08128,-0.21486 -0.05512,-0.37687 -0.13253,-0.55255c-0.0586,-0.13276 -0.18342,-0.18547 -0.30995,-0.11722c-0.15663,0.08416 -0.31437,0.12513 -0.49537,0.11184c-0.24846,-0.01831 -0.49885,-0.0207 -0.74837,-0.01783c-0.21708,0.00248 -0.43396,0.02542 -0.65118,0.03263c-0.38899,0.01314 -0.77805,0.01979 -1.16706,0.03343c-0.06042,0.00215 -0.11996,0.0275 -0.20156,0.04705c0.20333,0.40376 0.24936,0.85074 0.55387,1.18234c0.02739,0.03017 0.05109,0.06771 0.06478,0.10623c0.15546,0.43093 0.50997,0.68353 0.85199,0.94628c0.02908,0.02247 0.07812,0.02677 0.11804,0.02633zM236.14129,202.05338c0.34778,0.00747 0.69573,0.00821 1.0434,0.01094c0.07379,0.00195 0.14734,0.0034 0.22088,0.0051c0.25278,0.00595 0.51468,0.0538 0.75647,0.00383c0.53374,-0.11008 1.06078,-0.25875 1.58282,-0.41704c0.07343,-0.02225 0.14729,-0.06095 0.21515,-0.10805c0.25291,-0.09283 0.48622,-0.23707 0.71819,-0.3963c0.06074,-0.04205 0.11027,-0.09511 0.14479,-0.15481c0.04744,-0.03915 0.09537,-0.07829 0.13891,-0.12105c0.01384,-0.01361 0.02395,-0.02806 0.03529,-0.04222c0.15972,-0.13446 0.27803,-0.30693 0.39471,-0.49267c0.27215,-0.43331 0.58748,-0.83879 0.69273,-1.35609c0.04354,-0.21237 0.11493,-0.42151 0.13933,-0.63589c0.0366,-0.31758 0.03615,-0.63913 0.06329,-0.95795c0.03961,-0.45943 -0.08306,-0.88524 -0.25413,-1.30137c-0.08719,-0.2116 -0.18825,-0.41758 -0.25895,-0.57286c-0.17637,-0.03735 -0.31872,-0.06856 -0.46165,-0.09704c-0.03971,-0.00778 -0.08103,-0.01113 -0.12148,-0.00946c-0.49389,0.01859 -0.98834,0.02894 -1.48156,0.06026c-0.45452,0.02911 -0.90765,0.08147 -1.36149,0.12232c-0.12402,0.01143 -0.24888,0.01635 -0.37296,0.02928c-0.21711,0.02244 -0.43335,0.05861 -0.65121,0.07179c-0.35304,0.02133 -0.70743,0.0279 -1.06101,0.04198c-0.51315,0.02008 -1.02609,0.04191 -1.53923,0.06174c-0.18103,0.00693 -0.36221,0.0096 -0.5432,0.01504c-0.42491,0.01319 -0.85005,0.02588 -1.27501,0.0408c-0.25242,0.00877 -0.50531,0.01604 -0.75704,0.03656c-0.05024,0.00416 -0.11868,0.05448 -0.13912,0.10083c-0.05677,0.12771 -0.07022,0.27802 -0.14094,0.39564c-0.16728,0.27894 -0.3447,0.55412 -0.54286,0.81204c-0.22916,0.29825 -0.46806,0.5778 -0.83622,0.74614c-0.46764,0.21386 -0.95694,0.35032 -1.44394,0.49455c-0.25645,0.07577 -0.53452,0.08262 -0.80388,0.1099c-0.21859,0.02164 -0.43901,0.03725 -0.65827,0.03643c-0.15589,-0.00039 -0.31176,-0.04917 -0.46721,-0.0473c-0.18589,0.00206 -0.37126,0.05028 -0.55715,0.05159c-0.33558,0.00258 -0.67162,-0.01455 -1.06572,-0.02499c0.30519,0.18345 0.57277,0.35643 0.85184,0.50899c0.29998,0.1641 0.61068,0.30929 0.91694,0.46208c0.25726,0.12855 0.51217,0.26177 0.77314,0.38218c0.18729,0.08653 0.38303,0.15509 0.57457,0.232c0.2794,0.11217 0.55364,0.24017 0.83929,0.3338c0.38133,0.12509 0.77299,0.21829 1.15727,0.33575c0.47485,0.14479 0.94062,0.32177 1.42049,0.44649c0.74371,0.19357 1.49404,0.36337 2.24533,0.52521c0.14386,0.031 0.29084,0.04762 0.43841,0.06076c0.03739,0.0197 0.07788,0.03574 0.12531,0.04324c0.14012,0.02166 0.2675,0.03403 0.40175,0.0326c0.00349,0.0001 0.00721,0.00069 0.01046,0.00078c0.29324,0.06065 0.58332,0.11798 0.89347,0.12445z" data-paper-data="{&quot;origPos&quot;:null}" fill="#30419a"/><path d="M243.26498,181.49534c0.12034,0.00519 0.23606,0.0534 0.25677,0.21334c0.02077,0.15771 -0.07028,0.24209 -0.21202,0.282c-0.05127,0.01436 -0.10399,0.02718 -0.15654,0.03351c-0.15691,0.01904 -0.30354,-0.09511 -0.31757,-0.2439c-0.01286,-0.13604 0.0913,-0.25426 0.24525,-0.27463c0.05283,-0.00708 0.10668,-0.00615 0.18412,-0.01034z" data-paper-data="{&quot;origPos&quot;:null}" fill="#30419a"/><path d="M244.15412,193.90822c-0.20737,-0.00649 -0.329,-0.11374 -0.31906,-0.28161c0.00966,-0.1574 0.1369,-0.2523 0.33285,-0.24811c0.20343,0.00439 0.33427,0.11262 0.33074,0.27392c-0.00353,0.1613 -0.13915,0.26197 -0.34452,0.25578z" data-paper-data="{&quot;origPos&quot;:null}" fill="#30419a"/><path d="M244.41875,176.6537c-0.20114,-0.00608 -0.31931,-0.10275 -0.3196,-0.26116c-0.00006,-0.16713 0.12651,-0.26531 0.33517,-0.26053c0.20666,0.00498 0.3378,0.11148 0.33306,0.271c-0.00449,0.16003 -0.13953,0.25747 -0.34864,0.25069z" data-paper-data="{&quot;origPos&quot;:null}" fill="#30419a"/><path d="M242.65968,188.83351c0.01316,-0.14807 0.14373,-0.24663 0.30596,-0.23087c0.1468,0.01411 0.26243,0.14091 0.25115,0.2748c-0.0117,0.14038 -0.15803,0.25923 -0.30313,0.24664c-0.15183,-0.01275 -0.26682,-0.14452 -0.25397,-0.2906z" data-paper-data="{&quot;origPos&quot;:null}" fill="#30419a"/></g><g stroke="none"><path d="M254.02233,182.37346l0.5361,0.50712l0.35843,1.55383l-0.32878,2.03401l-1.07608,1.74006l-1.26123,0.69747l-1.51653,0.67349l-1.3428,-0.22517l-0.88757,-0.43161l-1.01546,-1.2724l-0.27946,-1.70116l0.16843,-1.63989l0.75595,-1.20026l1.48555,-1.38722l2.08843,-0.58575l0.54914,0.01455l1.23234,0.30829l0.53353,0.91464" data-paper-data="{&quot;origPos&quot;:null}" fill="#ef463c"/><g data-paper-data="{&quot;origPos&quot;:null}"><path d="M252.27735,187.67738l-1.54838,0.46336l-1.21324,-0.16285c0,0 -0.58455,-1.26722 -0.54568,-1.32207c0.03889,-0.0551 0.04849,-1.82966 0.04849,-1.82966l1.24351,-1.68574l1.6566,-0.31107l0.96203,0.45504l0.5885,1.1179l-0.4672,2.07999z" data-paper-data="{&quot;origPos&quot;:null}" fill="#ffffff"/><g data-paper-data="{&quot;origPos&quot;:null}" fill="#30419a"><path d="M246.87836,186.25365c0.00754,-0.28442 0.00488,-0.56986 0.02635,-0.85341c0.01453,-0.19044 0.06961,-0.37707 0.09486,-0.56722c0.02082,-0.1551 0.00441,-0.31718 0.04107,-0.46713c0.0347,-0.14226 0.0821,-0.28344 0.2663,-0.34417c0.07551,-0.02519 0.10346,-0.18585 0.15864,-0.28192c0.27536,-0.47913 0.59065,-0.93001 0.98901,-1.31608c0.30056,-0.29112 0.60531,-0.57964 0.92572,-0.84828c0.12654,-0.10616 0.29793,-0.16297 0.45457,-0.22867c0.24493,-0.10251 0.48998,-0.20952 0.74368,-0.28537c0.34421,-0.10263 0.69316,-0.22385 1.04631,-0.24991c0.28967,-0.02126 0.59522,0.02675 0.8842,0.13518c0.40307,0.15162 0.77601,0.34934 1.11477,0.61274c0.33484,0.26033 0.65941,0.53183 0.90964,0.87871c0.10923,0.15157 0.23107,0.29847 0.31172,0.46475c0.23509,0.48567 0.3928,0.99124 0.42041,1.54001c0.01801,0.35594 0.02609,0.70962 -0.0293,1.05862c-0.06587,0.41483 -0.23573,0.80021 -0.37987,1.19427c-0.13635,0.37305 -0.35142,0.69512 -0.57569,1.00624c-0.20459,0.28394 -0.48359,0.51452 -0.73151,0.76712c-0.09587,0.09723 -0.18368,0.21041 -0.29755,0.28048c-0.21072,0.12937 -0.43369,0.2412 -0.65893,0.34424c-0.36183,0.16527 -0.7343,0.30756 -1.09351,0.4774c-0.39861,0.18824 -0.82386,0.24258 -1.25134,0.23924c-0.53895,-0.00406 -1.02276,-0.2057 -1.48545,-0.48088c-0.48772,-0.29006 -0.86693,-0.69274 -1.20641,-1.1263c-0.277,-0.35357 -0.43429,-0.78155 -0.52727,-1.22654c-0.03451,-0.1663 -0.08657,-0.32883 -0.12608,-0.49451c-0.01799,-0.07407 -0.02469,-0.15107 -0.03614,-0.2267c0.00426,-0.00064 0.00802,-0.00129 0.01178,-0.00193zM251.83178,181.32511c-0.00397,0.01785 -0.00792,0.03571 -0.01189,0.05331c-0.55457,-0.04563 -1.06479,0.10923 -1.57352,0.31103c-0.62394,0.24788 -1.0727,0.71867 -1.53821,1.16208c-0.378,0.36067 -0.66676,0.79977 -0.94623,1.24536c-0.18727,0.29861 -0.30198,0.59866 -0.30646,0.94627c-0.00505,0.38826 -0.01509,0.77638 -0.02014,1.16464c-0.00258,0.19126 -0.04243,0.39624 0.01155,0.57153c0.10726,0.34833 0.21218,0.71929 0.41901,1.00964c0.30954,0.43426 0.7014,0.81108 1.06947,1.20174c0.06769,0.07189 0.187,0.09725 0.28522,0.13727c0.07649,0.03147 0.16458,0.03978 0.23459,0.08055c0.269,0.15679 0.55583,0.22352 0.86563,0.20528c0.42098,-0.02502 0.83989,-0.05657 1.2239,-0.25818c0.20238,-0.10639 0.40062,-0.22636 0.61398,-0.30427c0.49975,-0.18282 0.89015,-0.51273 1.25121,-0.88407c0.43517,-0.44745 0.78186,-0.95412 0.98,-1.55029c0.10219,-0.3076 0.24289,-0.61868 0.26248,-0.93447c0.02955,-0.47516 -0.02629,-0.95658 -0.05528,-1.43453c-0.03483,-0.56816 -0.30191,-1.04196 -0.65281,-1.46808c-0.16627,-0.20171 -0.37151,-0.37354 -0.57203,-0.54423c-0.20686,-0.17635 -0.40874,-0.38051 -0.65059,-0.48844c-0.27488,-0.12277 -0.59139,-0.15212 -0.88988,-0.22214z" data-paper-data="{&quot;origPos&quot;:null}"/><path d="M248.56093,186.58161c-0.03102,-0.27896 -0.08151,-0.55768 -0.08632,-0.83719c-0.00328,-0.19615 0.02031,-0.4083 0.0944,-0.58769c0.16443,-0.39725 0.36148,-0.78217 0.55797,-1.16535c0.20754,-0.4046 0.5183,-0.74184 0.90871,-0.94976c0.36256,-0.19294 0.74406,-0.37491 1.1738,-0.42938c0.3882,-0.04933 0.74582,-0.06479 1.11379,0.12181c0.25845,0.13107 0.55733,0.19562 0.73003,0.4464c0.15543,0.22513 0.27477,0.475 0.40987,0.71431c0.00572,0.01014 0.00511,0.02383 0.01083,0.03396c0.16306,0.28545 0.13174,0.59194 0.11403,0.90253c-0.01935,0.34423 -0.00482,0.69034 -0.01423,1.03558c-0.00155,0.05858 -0.05193,0.11486 -0.07644,0.17358c-0.1398,0.3338 -0.28183,0.66654 -0.41644,1.00222c-0.08629,0.21573 -0.23704,0.3699 -0.40271,0.53088c-0.28832,0.28047 -0.62469,0.48284 -0.98803,0.61066c-0.36209,0.12785 -0.73018,0.29321 -1.13571,0.24405c-0.2673,-0.03203 -0.54446,-0.03139 -0.79863,-0.10723c-0.32916,-0.09827 -0.55093,-0.37056 -0.74518,-0.63687c-0.16465,-0.22562 -0.28042,-0.48812 -0.40696,-0.73967c-0.05449,-0.10846 -0.08095,-0.23088 -0.12003,-0.34692c0.02608,-0.0053 0.05167,-0.01061 0.07724,-0.01591zM250.25143,187.86193c0.65787,-0.00302 1.13607,-0.16321 1.59033,-0.40861c0.1116,-0.06015 0.24632,-0.09849 0.3292,-0.1856c0.13574,-0.14257 0.24918,-0.30995 0.3517,-0.4791c0.34429,-0.56685 0.42277,-1.22207 0.60685,-1.8428c0.12326,-0.41531 -0.00324,-0.79083 -0.14689,-1.15909c-0.05677,-0.14519 -0.19833,-0.27242 -0.32971,-0.36945c-0.16906,-0.12496 -0.36681,-0.21177 -0.55269,-0.31398c-0.06122,-0.03356 -0.12543,-0.09586 -0.18489,-0.09221c-0.22588,0.01422 -0.44993,0.05368 -0.67529,0.07665c-0.37293,0.03776 -0.66176,0.26234 -0.96102,0.44774c-0.20871,0.12916 -0.41041,0.30368 -0.54892,0.50406c-0.24537,0.35469 -0.52718,0.7002 -0.56884,1.16157c-0.02182,0.23988 -0.107,0.4796 -0.09455,0.71591c0.01884,0.35298 0.02057,0.7207 0.23878,1.03354c0.11127,0.15935 0.20883,0.32783 0.32571,0.48259c0.1882,0.24969 0.42452,0.42509 0.62024,0.42877z" data-paper-data="{&quot;origPos&quot;:null}"/></g></g></g><path d="M225.28365,192.32988c-1.05637,-0.02799 -1.83331,-3.04794 -1.73533,-6.74525c0.09798,-3.6973 1.03375,-6.67187 2.09013,-6.64388c1.05637,0.02799 1.83331,3.04794 1.73533,6.74525c-0.09798,3.6973 -1.03375,6.67187 -2.09013,6.64388z" fill="none" stroke="#c83737"/><path d="M221.02677,196.47058c-1.46719,-0.03888 -2.53051,-4.82794 -2.375,-10.69668c0.15551,-5.86874 1.47097,-10.59477 2.93815,-10.5559c1.46719,0.03888 2.53051,4.82794 2.375,10.69668c-0.15551,5.86874 -1.47097,10.59477 -2.93815,10.5559z" fill="none" stroke="#c83737"/><path d="M222.52082,192.25667c-1.4085,-0.03733 -2.47467,-2.92211 -2.38137,-6.44335c0.09331,-3.52125 1.31075,-6.34552 2.71926,-6.30819c1.4085,0.03733 2.47467,2.92211 2.38137,6.44335c-0.09331,3.52125 -1.31075,6.34552 -2.71926,6.30819z" fill="none" stroke="#fff945"/></g></g></svg>